<?xml version="1.0" encoding="UTF-8" standalone="no"?>
<svg
   xmlns:dc="http://purl.org/dc/elements/1.1/"
   xmlns:cc="http://creativecommons.org/ns#"
   xmlns:rdf="http://www.w3.org/1999/02/22-rdf-syntax-ns#"
   xmlns:svg="http://www.w3.org/2000/svg"
   xmlns="http://www.w3.org/2000/svg"
   xmlns:sodipodi="http://sodipodi.sourceforge.net/DTD/sodipodi-0.dtd"
   xmlns:inkscape="http://www.inkscape.org/namespaces/inkscape"
   version="1.1"
   id="svg2"
   xml:space="preserve"
   width="3733.5872"
   height="1954.7708"
   viewBox="0 0 3733.5872 1954.7707"
   sodipodi:docname="11070.svg"
   inkscape:version="1.0.2 (1.0.2+r75+1)"><metadata
     id="metadata8"><rdf:RDF><cc:Work
         rdf:about=""><dc:format>image/svg+xml</dc:format><dc:type
           rdf:resource="http://purl.org/dc/dcmitype/StillImage" /><dc:title></dc:title></cc:Work></rdf:RDF></metadata><defs
     id="defs6"><clipPath
       clipPathUnits="userSpaceOnUse"
       id="clipPath608"><path
         d="m 11623.4,8610.5 c -7.7,0 -15.5,0.1 -23.3,0.3 -192.7,4.4 -384.6,63.4 -550.8,177.8 -42.1,28.9 -82.5,61.5 -120.9,97.6 -408.1,384 -427.7,1026.1 -43.7,1434.3 14.2,15 28.7,29.6 43.5,43.5 194.3,183.3 444.7,275.9 695.6,275.9 58.2,0 116.3,-5 173.8,-15 144.9,-25 285.5,-81.7 410.9,-170.3 38.4,-27.1 75.3,-57.3 110.5,-90.4 0.2,-0.1 0.4,-0.3 0.5,-0.5 v -1334 l 122.6,-4.5 c -24.2,-32.9 -50.7,-64.7 -79.4,-95.2 -141.4,-150.3 -317.6,-247.8 -504.4,-292.1 -77,-18.2 -155.9,-27.4 -234.9,-27.4"
         id="path606" /></clipPath></defs><sodipodi:namedview
     pagecolor="#ffffff"
     bordercolor="#666666"
     borderopacity="1"
     objecttolerance="10"
     gridtolerance="10"
     guidetolerance="10"
     inkscape:pageopacity="0"
     inkscape:pageshadow="2"
     inkscape:window-width="1920"
     inkscape:window-height="1016"
     id="namedview4"
     showgrid="false"
     inkscape:zoom="0.21793253"
     inkscape:cx="1712.505"
     inkscape:cy="697.11541"
     inkscape:window-x="0"
     inkscape:window-y="27"
     inkscape:window-maximized="1"
     inkscape:current-layer="g14" /><g
     id="g10"
     inkscape:groupmode="layer"
     inkscape:label="ink_ext_XXXXXX"
     transform="matrix(1.3333333,0,0,-1.3333333,-254.84883,2189.3045)"><g
       id="g12"
       transform="scale(0.1)"><g
         id="g14"
         transform="scale(1.96319)" /><g
         id="g18"
         transform="scale(1.94421)" /><g
         id="g22"
         transform="scale(1.60288)"><path
           d="m 15292.8,6565.77 c 0,0 475.4,969.36 741.3,883.33 265.9,-86.03 -741.3,-883.33 -741.3,-883.33"
           style="fill:#cde0fb;fill-opacity:1;fill-rule:nonzero;stroke:none"
           id="path24" /></g><g
         id="g26"
         transform="scale(1.66924)"><path
           d="m 14356.5,5883.64 c 0,0 1093.6,1071.9 1518.6,876.43 424.9,-195.48 -259.1,-405.11 -520,-462.21 -260.9,-57.1 -998.6,-414.22 -998.6,-414.22"
           style="fill:#cde0fb;fill-opacity:1;fill-rule:nonzero;stroke:none"
           id="path28" /></g><g
         id="g30"
         transform="scale(1.79088)"><path
           d="m 15935.9,1717.82 c 364.1,239.21 18.2,872.64 18.2,872.64 0,0 -849.4,228.66 -909.7,356.37 -60.3,127.75 764.4,-53.67 764.4,-53.67 -59.6,266.24 -591.6,820.22 -591.6,820.22 0,0 -802.2,-309.01 -829.2,-170.37 -27,138.65 724.3,237.43 724.3,237.43 -156.8,225.14 -524.6,362.78 -524.6,362.78 -570,135.8 -715,-603.17 -715,-603.17 0,0 -280.3,-101.12 -662.3,-32.72 v 0 c 0,0 -72.9,19.82 -188,26.52 l 22.4,-68.12 c 20.1,0.45 39.7,0.11 58.9,-1.12 l 0.3,-0.05 0.9,-0.06 c 12,-1.22 29.2,-3.01 50.2,-5.36 v -0.05 h 0.1 c 47.6,-7.43 82.3,-11.62 106.9,-13.4 h 0.2 c 148.3,-20.44 344.3,-55.62 398.8,-104.09 0,0 8.2,11 26.5,24.85 -8.4,-7.93 -17.2,-16.19 -26.5,-24.85 -211.5,-198.39 -62.1,-794.8 110.9,-1097.62 173.1,-302.86 218.2,-131.33 309.5,92.19 91.4,223.58 -67.9,577.04 -45.1,704.35 22.8,127.31 133,-11.73 187.2,-233.63 54.4,-221.9 -126.6,-401.09 -45.3,-761.69 81.3,-360.55 826.3,-411.36 826.3,-411.36 -154.1,216.87 -162.8,693.46 -85,737.34 77.8,43.95 279.6,-599.81 337.3,-691.5 57.8,-91.74 314.9,-201.08 679,38.14"
           style="fill:#cde0fb;fill-opacity:1;fill-rule:nonzero;stroke:none"
           id="path32" /></g><path
         d="m 7944.48,8783.7 c 0,0 -961.15,1959.7 -1498.71,1785.8 -537.58,-174 1498.71,-1785.8 1498.71,-1785.8"
         style="fill:#dfebfd;fill-opacity:1;fill-rule:nonzero;stroke:none"
         id="path34" /><path
         d="m 8635.71,7897 c 0,0 -2302.42,2256.8 -3197.12,1845.3 -894.71,-411.6 545.37,-852.9 1094.64,-973.1 C 7082.5,8649 8635.71,7897 8635.71,7897"
         style="fill:#dfebfd;fill-opacity:1;fill-rule:nonzero;stroke:none"
         id="path36" /><path
         d="m 4294.76,6601.4 c 11.83,685.7 1145.58,758.5 1145.58,758.5 0,0 1018.95,-937.6 1239.65,-910.3 220.69,27.2 -714.65,971.7 -714.65,971.7 404.41,144.8 1589.03,-96.7 1589.03,-96.7 0,0 263.88,-1327.4 471.08,-1246.6 207.21,80.7 -293.61,1163.3 -293.61,1163.3 431.52,-19.1 924.06,-392.6 924.06,-392.6 660.38,-644.1 -200.76,-1458.8 -200.76,-1458.8 0,0 101.38,-458 513.81,-908.6 h 0.01 c 0,0 87.68,-80.3 193.41,-227.7 L 9053,4226 c -16.33,27 -33.33,52.9 -51.11,77.4 l -0.33,0.4 -0.78,1.1 c -11.75,15 -28.59,36.3 -49.4,62.2 l -0.08,0.1 -0.11,0.1 c -49.92,57 -84.69,99.6 -107.77,130.9 l -0.19,0.3 C 8691.29,4678.6 7364.07,4190 6815.57,4165.4 c -548.5,-24.7 -358.3,179.8 -137.75,489.4 220.56,309.6 824.8,395.1 975.01,532.6 150.21,137.5 -127.48,167 -468.4,52.5 -340.91,-114.5 -427,-506.1 -975.12,-701.3 -548.12,-195.2 -1242.64,753.2 -1242.64,753.2 418.16,-22.5 1059.5,366.9 1052.5,507.4 -7.01,140.5 -1033.27,-132.8 -1203.86,-133.2 -170.58,-0.3 -532.39,249.7 -520.55,935.4"
         style="fill:#cde0fb;fill-opacity:1;fill-rule:nonzero;stroke:none"
         id="path38" /><path
         d="M 15821.9,1863.3 H 7725.82 c -175.87,0 -318.46,142.9 -318.46,319.3 v 10816.3 c 0,181.1 149.97,326 330.4,319.2 l 8402.54,-387.5 v -10748 c 0,-176.4 -142.6,-319.3 -318.4,-319.3"
         style="fill:#f99746;fill-opacity:1;fill-rule:nonzero;stroke:none"
         id="path40" /><g
         id="g42"
         transform="scale(1.52597)"><path
           d="m 10785.8,1221.06 h 5305.5 c 115.3,0 208.7,93.64 208.7,209.24 v 7088.19 c 0,118.65 -98.3,213.57 -216.5,209.12 L 10577.1,8473.66 V 1430.3 c 0,-115.6 93.4,-209.24 208.7,-209.24"
           style="fill:#f99746;fill-opacity:1;fill-rule:nonzero;stroke:none"
           id="path44" /></g><path
         d="m 8020.42,12848.9 -262.5,-213.3 c -37.09,-30.1 -58.71,-75.9 -58.71,-124.4 V 2025 c 0,-87.8 69.52,-158.9 155.27,-158.9 h 653.57 c 89.45,0 160.41,77.1 154.98,168.5 l -642.61,10814.3"
         style="fill:#aec3ff;fill-opacity:1;fill-rule:nonzero;stroke:none"
         id="path46" /><g
         id="g48"
         transform="scale(1.50905)"><path
           d="m 16087.1,8514.57 173.9,-141.32 c 24.6,-19.97 39,-50.33 39,-82.45 V 1341.9 c 0,-58.18 -46.1,-105.29 -102.9,-105.29 H 15764 c -59.3,0 -106.3,51.09 -102.7,111.66 l 425.8,7166.3"
           style="fill:#aec3ff;fill-opacity:1;fill-rule:nonzero;stroke:none"
           id="path50" /></g><path
         d="M 15840.7,1863.3 H 8223.34 c -165.48,0 -299.63,138.1 -299.63,308.5 V 12622 c 0,174.9 141.09,314.9 310.86,308.3 l 6648.93,-256.9 c 701.6,-27.1 1256.8,-620.7 1256.8,-1343.6 v -9158 c 0,-170.4 -134.1,-308.5 -299.6,-308.5"
         style="fill:#fff7f0;fill-opacity:1;fill-rule:nonzero;stroke:none"
         id="path52" /><g
         id="g54"
         transform="scale(1.49429)"><path
           d="M 10985.4,1246.95 H 16116 c 101.6,0 184,84.79 184,189.45 v 7028.08 c 0,107.43 -86.7,193.38 -190.9,189.35 L 11548,8477.56 c -416.8,-16.11 -746.7,-368.72 -746.7,-798.21 V 1436.4 c 0,-104.66 82.4,-189.45 184.1,-189.45"
           style="fill:#fff7f0;fill-opacity:1;fill-rule:nonzero;stroke:none"
           id="path56" /></g><path
         d="m 16161,4065 h -41.3 v 6785.5 h 41.3 V 4065"
         style="fill:#f9dec7;fill-opacity:1;fill-rule:nonzero;stroke:none"
         id="path58" /><g
         id="g60"
         transform="scale(1.23583)"><path
           d="m 16286.1,9328.05 c 12.4,-14.38 13.9,-30.35 7.6,-47.36 l -0.2,-0.23 c -11.6,-31.45 -49.5,-66.4 -93.6,-101.25 -5.6,-4.48 -10.6,-8.56 -15,-12.33 -1.1,-0.98 -2.2,-1.98 -3.4,-2.97 -0.9,-0.77 -1.7,-1.58 -2.6,-2.31 -41,-37.35 -25.7,-46.08 -99.6,-121.94 -84.3,-86.45 -141.9,-87.6 -158.2,-79.56 -13.8,6.85 14.7,52.81 46.2,104.47 1.6,2.49 3,5.02 4.7,7.54 4.2,6.86 8.3,13.84 12.5,20.74 37,62.18 27.8,91.54 19.8,184.53 -6.5,75.56 -114.5,422.68 -114.5,422.68 l 160.5,26.48 c 0,0 46.4,-276.13 99.2,-318.98 28.3,-22.84 60.1,-23.35 87.4,-40.32 1.8,-1.18 3.8,-2.39 5.6,-3.63 15.5,-10.42 31.2,-21.15 43.6,-35.56"
           style="fill:#ffb27d;fill-opacity:1;fill-rule:nonzero;stroke:none"
           id="path62" /></g><g
         id="g64"
         transform="scale(1.23583)"><path
           d="m 16286.1,9328.05 c 12.4,-14.38 13.9,-30.35 7.6,-47.36 l -0.2,-0.23 c -14.1,-31.41 -51.1,-66.18 -93.7,-100.93 -5.6,-4.56 -10.5,-8.74 -14.9,-12.65 -1.1,-0.98 -2.2,-1.98 -3.4,-2.97 -0.9,-0.77 -1.7,-1.58 -2.6,-2.31 -41,-37.35 -25.7,-46.08 -99.6,-121.94 -84.3,-86.45 -141.9,-87.6 -158.2,-79.56 -13.8,6.85 14.7,52.81 46.2,104.47 16.4,5.85 92.2,36.05 149.9,108.82 50.8,63.92 85.1,146.26 119.7,193.85 1.8,-1.18 3.8,-2.39 5.6,-3.63 15.5,-10.42 31.2,-21.15 43.6,-35.56"
           style="fill:#233862;fill-opacity:1;fill-rule:nonzero;stroke:none"
           id="path66" /></g><g
         id="g68"
         transform="scale(1.14674)"><path
           d="m 16159.3,10170.5 c -11,-53.2 -87,-43.8 -171.8,-22.4 -84.7,21.3 -64.7,-3.5 -185.4,10.7 -120.8,14.3 -157.1,59.6 -160.7,77.6 -3.2,16 56.5,21.2 120.7,28.1 8.1,0.8 16.2,1.8 24.3,2.7 72.3,8.6 125.6,54.9 191.6,92.7 62.5,35.9 156.4,183.2 156.4,183.2 l 165.6,-14.4 c 0,0 -87.9,-131.4 -121.9,-188.6 -20.1,-33.7 -19.4,-78.4 -17.1,-112.9 1.1,-18.7 2.3,-37.9 -1.7,-56.7"
           style="fill:#ffb27d;fill-opacity:1;fill-rule:nonzero;stroke:none"
           id="path70" /></g><g
         id="g72"
         transform="scale(1.13712)"><path
           d="m 16122.8,10233.9 c -85.5,21.5 -65.3,-3.5 -187.1,10.9 -121.8,14.3 -158.3,60 -161.9,78.2 -3.3,16.1 56.9,21.3 121.7,28.3 l 0.5,-1.2 c 0,0 72.7,-52.4 174.2,-55.5 82.7,-2.6 170.4,20.5 227.5,19.1 1.2,-18.9 2.3,-38.2 -1.7,-57.1 -11.1,-53.7 -87.7,-44.2 -173.2,-22.7"
           style="fill:#233862;fill-opacity:1;fill-rule:nonzero;stroke:none"
           id="path74" /></g><g
         id="g76"
         transform="scale(1.22161)"><path
           d="m 16300,9688.36 c 0,0 -10.8,-7.04 -27,-15.98 -19.3,-10.58 -46.1,-23.84 -70.9,-30.81 -26.4,-7.42 -53.5,-9.32 -72.9,-9.5 -16.9,-0.14 -28,1 -28,1 l -186.3,512.43 -33.7,92.6 -35.8,98.6 -12.5,34.3 -60.6,166.9 c 0,0 148.2,380.2 299.4,198.9 18.4,-22 35.7,-54.2 51.8,-93.6 11.1,-26.9 21.5,-57.2 31.5,-90.1 7.5,-24.6 14.8,-50.7 21.7,-77.8 18.8,-73.8 35.5,-155.3 50.1,-237.2 48.6,-273.31 73.2,-549.74 73.2,-549.74"
           style="fill:#233862;fill-opacity:1;fill-rule:nonzero;stroke:none"
           id="path78" /></g><g
         id="g80"
         transform="scale(1.30191)"><path
           d="m 16234,9847.82 -708.9,-29.84 c -155.3,32.12 -286.3,114.31 -375.4,158.38 -7.4,3.7 -14.3,7.15 -20.7,10.3 -30.5,15.14 -51.4,25.44 -60,27.14 -53.9,11.3 -81.6,-76.58 -127.3,-184.67 -9.4,-22.01 -19.4,-44.8 -30.5,-67.82 -8,-16.41 -23,-37.65 -43.2,-62.22 -3.8,-4.53 -7.7,-9.17 -11.7,-13.92 -156.9,-183.23 -560.8,-524.46 -560.8,-524.46 0,0 -4.8,0 -12.5,0.17 -24.6,0.48 -79.7,2.74 -106,12.85 -15.2,5.84 -26.5,12.32 -34.4,17.85 -11.6,8.27 -16.4,14.69 -16.4,14.69 0,0 483.3,944.93 733.5,1202.33 v 0.1 c 3.6,3.7 7.2,7.3 10.8,10.7 27.3,26.7 51.5,44.3 71.7,50.7 85.3,26.8 636.8,-3.1 636.8,-3.1 l 17.6,28.6 29.5,2.1 5,0.3 24.5,1.8 h 0.1 l 34,2.4 50.4,3.6 136.2,9.7 21.9,1.5 252,17.9 c 0,0 11.5,-25.9 27.1,-68.9 6,-16.7 12.6,-36.1 19.5,-57.5 45,-140.7 103.2,-393.8 37.2,-560.68"
           style="fill:#2b478b;fill-opacity:1;fill-rule:nonzero;stroke:none"
           id="path82" /></g><g
         id="g84"
         transform="scale(1.32691)"><path
           d="m 16086.4,11258.1 c -123.5,105.5 -211.7,131.6 -224,298.6 -6.6,90.6 -128.3,390.5 -334.1,364.3 -17.3,-2.3 -34.6,-3.8 -51.9,-3.1 -24.1,1 -63.8,-2.2 -104.7,-26.2 -99.1,-58.1 -281.6,-594.6 -158.5,-783.1 22.1,-33.9 53.9,-56.5 98.1,-63.1 5.2,-2.9 10.4,-5.9 15.8,-8.9 h 0.1 c 22.2,-12.5 46.5,-26.1 72.2,-40.7 145.5,-82 335.9,-190.5 433.5,-245.3 v 0 c 6,-3.3 11.5,-6.5 16.7,-9.4 11.3,-6.3 20.8,-11.6 28.4,-15.7 11.3,-6.3 18.1,-9.8 18.6,-9.8 0,0 25.1,-9.7 60.3,-17 49,-10.2 117.8,-15.9 165.6,15.4 18.9,12.3 36.6,27.6 52.4,45.4 99,110.7 125.1,316.4 -88.5,498.6"
           style="fill:#233862;fill-opacity:1;fill-rule:nonzero;stroke:none"
           id="path86" /></g><g
         id="g88"
         transform="scale(1.28134)"><path
           d="m 16024.4,11531 c -1,-0.6 98.2,-35.2 164.9,-6.2 62.6,27.1 110.7,129.7 109.8,129.7 -28.4,1.5 -59.5,26.6 -82.4,189.9 l -12.1,-4.2 -204.1,-71.9 c 0,0 14.3,-65.4 23.4,-127.7 7.6,-52.2 11.6,-102.3 0.5,-109.6"
           style="fill:#ffb27d;fill-opacity:1;fill-rule:nonzero;stroke:none"
           id="path90" /></g><g
         id="g92"
         transform="scale(1.27383)"><path
           d="m 16094.7,11837.7 c 0,0 8.7,-46.2 20.9,-112.1 117.8,20.4 167.4,120.8 184.4,184.3 l -205.3,-72.2"
           style="fill:#ed975d;fill-opacity:1;fill-rule:nonzero;stroke:none"
           id="path94" /></g><g
         id="g96"
         transform="scale(1.27729)"><path
           d="m 16020.3,11740.8 c 0,0 279.7,35.6 254.9,209.4 -24.8,173.9 -5.4,295.5 -185,280.2 -179.7,-15.3 -204.8,-86.6 -210.7,-146.7 -5.8,-60 67.4,-347.7 140.8,-342.9"
           style="fill:#ffb27d;fill-opacity:1;fill-rule:nonzero;stroke:none"
           id="path98" /></g><g
         id="g100"
         transform="scale(1.28181)"><path
           d="m 15834.3,12135.9 c 0,0 177.2,-154.9 298.4,-168.1 121.1,-13.3 167.3,25.3 167.3,25.3 0,0 -71,59.9 -113.4,156 -12.4,28.3 -39.1,47.8 -69.9,50.7 -86.6,8.1 -250.6,12.7 -282.4,-63.9"
           style="fill:#233862;fill-opacity:1;fill-rule:nonzero;stroke:none"
           id="path102" /></g><g
         id="g104"
         transform="scale(1.25396)"><path
           d="m 16300,12418.7 c 0,0 -61.4,-58.6 -80.9,-102.1 -18.9,-42.1 -25.1,-142.9 -10.6,-183.1 0,0 -93.8,185.3 -39.3,274.7 57.7,94.7 130.8,10.5 130.8,10.5"
           style="fill:#233862;fill-opacity:1;fill-rule:nonzero;stroke:none"
           id="path106" /></g><g
         id="g108"
         transform="scale(1.30208)"><path
           d="m 15535.4,10945.1 c 4.4,-555 -0.9,-439 59.5,-492.1 14.5,-12.7 55.6,-20.6 109.7,-24.5 170,-12.5 469.4,13.4 481,44.7 40,108.6 12.5,142.6 46.4,308.9 3.6,17.7 7.9,36.9 13,57.7 28.1,114.2 55,153 -40.6,337.5 -86.6,167.1 -177,302.9 -185.2,298 -232.7,-135.9 -250.6,-20.1 -250.6,-20.1 0,0 -235.4,-239.4 -233.2,-510.1"
           style="fill:#aec3ff;fill-opacity:1;fill-rule:nonzero;stroke:none"
           id="path110" /></g><g
         id="g112"
         transform="scale(1.22161)"><path
           d="m 16300,9688.36 c 0,0 -10.8,-7.04 -27,-15.98 -19.3,-10.58 -46.1,-23.84 -70.9,-30.81 -26.4,-7.42 -53.5,-9.32 -72.9,-9.5 -16.9,-0.14 -28,1 -28,1 l -186.3,512.43 54.6,92.6 139.7,237.2 45.8,77.8 c 7.5,-24.6 14.8,-50.7 21.7,-77.8 18.8,-73.8 35.5,-155.3 50.1,-237.2 48.6,-273.31 73.2,-549.74 73.2,-549.74"
           style="fill:#2b478b;fill-opacity:1;fill-rule:nonzero;stroke:none"
           id="path114" /></g><g
         id="g116"
         transform="scale(1.25963)"><path
           d="m 16300,11841.2 c 0,0 -246.8,-40 -276.5,-146 -29.7,-105.9 -204.4,-728.6 -204.4,-728.6 0,0 125.1,-23.4 183.4,34.1 58.3,57.5 205.3,535.6 205.3,535.6 l 92.2,304.9"
           style="fill:#aec3ff;fill-opacity:1;fill-rule:nonzero;stroke:none"
           id="path118" /></g><g
         id="g120"
         transform="scale(1.29665)"><path
           d="m 15770.3,10472.1 c 170.8,-12.5 471.4,13.5 483,45 40.2,109 12.6,143.1 46.7,310.2 l -80.8,232.6 c 0,0 11.8,-258.5 -64.9,-325.9 -76.6,-67.5 -312.9,-129 -350.4,-185.6 -18.1,-27.1 -30,-54.4 -33.6,-76.3"
           style="fill:#95b3ef;fill-opacity:1;fill-rule:nonzero;stroke:none"
           id="path122" /></g><g
         id="g124"
         transform="scale(1.27015)"><path
           d="m 16300,10800.2 c 0,0 -171.8,39.5 -199.7,24.4 -27.8,-15 -96.1,-70.2 -104.8,-89.5 -8.5,-19.3 62,14.3 84.9,20.2 14.8,3.9 53.7,-9.9 73,-16.5 81,-27.6 130.9,-14 130.9,-14 l 15.7,75.4"
           style="fill:#ffb27d;fill-opacity:1;fill-rule:nonzero;stroke:none"
           id="path126" /></g><g
         id="g128"
         transform="scale(1.32956)"><path
           d="m 15688.3,11238.3 c 0,0 220.6,-15.2 296.3,-122.3 106.5,-150.8 315.4,-791.7 192.5,-876.1 -138.5,-95.1 -627,-20.7 -627,-20.7 0,0 -15.8,76.2 7.1,112.8 22.9,36.7 391.4,93.5 408.5,110.4 17.1,16.8 -210,332.7 -209.6,383.6 0.3,51 -67.8,412.3 -67.8,412.3"
           style="fill:#aec3ff;fill-opacity:1;fill-rule:nonzero;stroke:none"
           id="path130" /></g><g
         id="g132"
         transform="scale(1.25391)"><path
           d="m 16300,10916.3 c 0,0 -36.8,-46.8 -48.9,-52.4 -12,-5.5 -19.8,-4.1 -19.8,-4.1 l 25,44.2 43.7,12.3"
           style="fill:#ffb27d;fill-opacity:1;fill-rule:nonzero;stroke:none"
           id="path134" /></g><g
         id="g136"
         transform="scale(1.25459)"><path
           d="m 16300,10958.9 -106.5,-50.8 c 0,0 4.5,-7.4 17.5,-6.9 13.1,0.5 46.1,12.3 46.1,12.3 l 42.9,45.4"
           style="fill:#ffb27d;fill-opacity:1;fill-rule:nonzero;stroke:none"
           id="path138" /></g><g
         id="g140"
         transform="scale(1.2519)"><path
           d="m 16300,10831.5 -841.4,6 -248.6,631.1 840.1,-5.9 249.9,-631.2"
           style="fill:#f99746;fill-opacity:1;fill-rule:nonzero;stroke:none"
           id="path142" /></g><g
         id="g144"
         transform="scale(1.27187)"><path
           d="m 15206.3,10691.5 1093.7,-7.7 -0.2,-24.1 -1083.9,7.6 -9.6,24.2"
           style="fill:#ed7d2b;fill-opacity:1;fill-rule:nonzero;stroke:none"
           id="path146" /></g><g
         id="g148"
         transform="scale(1.21039)"><path
           d="m 16210.7,11533.1 c -6.4,22.9 7,41.4 29.9,41.2 22.9,-0.2 46.6,-18.9 53,-41.8 6.4,-22.9 -7,-41.4 -29.9,-41.2 -22.9,0.1 -46.6,18.8 -53,41.8"
           style="fill:#ffffff;fill-opacity:1;fill-rule:nonzero;stroke:none"
           id="path150" /></g><path
         d="m 9009.36,1870.2 h 5622.44 c 391.1,0 708.1,317.1 708.1,708.1 v 29.6 c 0,391 -317,708.1 -708.1,708.1 H 9009.36 c -391.08,0 -708.11,-317.1 -708.11,-708.1 v -29.6 c 0,-391 317.03,-708.1 708.11,-708.1"
         style="fill:#2b478b;fill-opacity:1;fill-rule:nonzero;stroke:none"
         id="path152" /><g
         id="g154"
         transform="scale(1.00901)"><path
           d="m 12086.9,2760.52 -5,-313.08 c -4.4,-277 216.6,-505.24 493.6,-509.6 l 3703.4,-59.17 1.1,62.34 c -207.8,108.12 -348.1,326.85 -344.1,576.9 l 1.8,110.21 c 3.9,250.04 151.1,464.21 362.2,565.6 l 0.1,1.29 -3703.5,59.16 c -277,4.37 -505.2,-216.64 -509.6,-493.65"
           style="fill:#f9dec7;fill-opacity:1;fill-rule:nonzero;stroke:none"
           id="path156" /></g><g
         id="g158"
         transform="scale(1.01734)"><path
           d="m 16241.8,1838.32 h -3869.7 c -249.5,0 -445.1,312.38 -445.1,711.07 0,398.68 195.6,710.96 445.1,710.96 h 3869.7 c 32.2,0 58.2,-26.04 58.2,-58.19 0,-32.14 -26,-58.19 -58.2,-58.19 h -3869.7 c -178.2,0 -328.8,-272.28 -328.8,-594.58 0,-322.32 150.6,-594.69 328.8,-594.69 h 3869.7 c 32.2,0 58.2,-26.05 58.2,-58.19 0,-32.14 -26,-58.19 -58.2,-58.19"
           style="fill:#1b3770;fill-opacity:1;fill-rule:nonzero;stroke:none"
           id="path160" /></g><path
         d="m 16147.9,2922.4 h -3385.5 v 9.4 h 3385.5 v -9.4"
         style="fill:#e8c2a3;fill-opacity:1;fill-rule:nonzero;stroke:none"
         id="path162" /><path
         d="m 16099.8,2791.2 h -1285.2 v 8.5 h 1285.2 v -8.5"
         style="fill:#e8c2a3;fill-opacity:1;fill-rule:nonzero;stroke:none"
         id="path164" /><path
         d="m 16099.8,2342.2 h -2242.1 v 8.6 h 2242.1 v -8.6"
         style="fill:#e8c2a3;fill-opacity:1;fill-rule:nonzero;stroke:none"
         id="path166" /><path
         d="m 13182.8,2927.1 c 0,0 173.7,-72.7 194.4,-318.1 20.6,-245.3 0,-376.1 0,-376.1 l -209.7,99.8 -211.7,-99.8 v 383.6 c 0,0 -7.8,310.6 -296.7,310.6 h 523.7"
         style="fill:#f78248;fill-opacity:1;fill-rule:nonzero;stroke:none"
         id="path168" /><path
         d="m 8558.59,3316 h 4325.91 c 256,0 463.5,207.5 463.5,463.5 v 161.2 c 0,256 -207.5,463.5 -463.5,463.5 H 8558.59 c -256,0 -463.53,-207.5 -463.53,-463.5 v -161.2 c 0,-256 207.53,-463.5 463.53,-463.5"
         style="fill:#699dee;fill-opacity:1;fill-rule:nonzero;stroke:none"
         id="path170" /><path
         d="m 11001.6,4005.4 -3.8,-237.5 c -3.3,-210 163.1,-383.1 371.7,-386.5 l 2788.8,-44.8 0.8,47.3 c -156.5,81.9 -262.1,247.9 -259.1,437.5 l 1.3,83.6 c 3,189.6 113.9,352.1 272.8,429 l 0.1,0.9 -2788.8,44.9 c -208.6,3.3 -380.5,-164.3 -383.8,-374.4"
         style="fill:#f9dec7;fill-opacity:1;fill-rule:nonzero;stroke:none"
         id="path172" /><path
         d="m 14231.3,3317.5 h -2938 c -189.5,0 -338,238.8 -338,543.7 0,304.9 148.5,543.8 338,543.8 h 2938 c 24.4,0 44.2,-20 44.2,-44.5 0,-24.6 -19.8,-44.5 -44.2,-44.5 h -2938 c -135.3,0 -249.6,-208.3 -249.6,-454.8 0,-246.5 114.3,-454.7 249.6,-454.7 h 2938 c 24.4,0 44.2,-19.9 44.2,-44.5 0,-24.6 -19.8,-44.5 -44.2,-44.5"
         style="fill:#4b87dd;fill-opacity:1;fill-rule:nonzero;stroke:none"
         id="path174" /><path
         d="m 13951,4108.7 h -2121.4 v 6.4 H 13951 v -6.4"
         style="fill:#e8c2a3;fill-opacity:1;fill-rule:nonzero;stroke:none"
         id="path176" /><path
         d="M 13915.1,4009.8 H 12956 v 6.4 h 959.1 v -6.4"
         style="fill:#e8c2a3;fill-opacity:1;fill-rule:nonzero;stroke:none"
         id="path178" /><path
         d="m 13915.1,3672.3 h -1673.2 v 6.4 h 1673.2 v -6.4"
         style="fill:#e8c2a3;fill-opacity:1;fill-rule:nonzero;stroke:none"
         id="path180" /><g
         id="g182"
         transform="scale(1.43798)"><path
           d="m 16262.4,3690.24 c 0,0 37.6,-115.72 34.3,-142.21 -3.2,-26.5 -26.8,-116.97 -43.6,-140.13 -16.9,-23.16 -25.2,94.37 -38.6,112.03 -13.3,17.67 -2.7,-44.23 -12.1,-50 -9.4,-5.7 -29,45.55 -37.5,63.63 -8.4,18.08 20.7,84.78 20.8,131.3 0,46.45 76.7,25.38 76.7,25.38"
           style="fill:#ffb27d;fill-opacity:1;fill-rule:nonzero;stroke:none"
           id="path184" /></g><g
         id="g186"
         transform="scale(1.43767)"><path
           d="m 15381.6,4610.85 c -10.4,132.78 133.9,223.76 247.7,154.69 2.4,-1.39 4.7,-2.85 7,-4.31 170.5,-109.76 538.4,-621.84 563.7,-673.1 25.3,-51.33 100,-459.43 100,-459.43 0,0 -92.3,-33.8 -135.5,1.26 0,0 -149.8,387.08 -171.9,406.42 -22.2,19.34 -599.1,343.05 -604,464.36 -1.3,32.13 -3.9,70.67 -7,110.11"
           style="fill:#233862;fill-opacity:1;fill-rule:nonzero;stroke:none"
           id="path188" /></g><g
         id="g190"
         transform="scale(1.29403)"><path
           d="m 16244.3,5360.62 55.7,-160.05 -805,-280.28 -55.7,160.04 805,280.29"
           style="fill:#f99746;fill-opacity:1;fill-rule:nonzero;stroke:none"
           id="path192" /></g><g
         id="g194"
         transform="scale(1.23012)"><path
           d="m 16073.8,5191.51 226.2,-15.6 -58.6,168.35 -167.6,-152.75"
           style="fill:#f9ddbf;fill-opacity:1;fill-rule:nonzero;stroke:none"
           id="path196" /></g><g
         id="g198"
         transform="scale(1.30076)"><path
           d="m 16271.7,5312.51 17.5,-50.36 c 10.8,-30.98 -5.6,-64.81 -36.5,-75.57 l -37,-12.92 -55.5,159.22 40.3,13.99 c 29.2,10.23 61.1,-5.23 71.2,-34.36"
           style="fill:#f9ddbf;fill-opacity:1;fill-rule:nonzero;stroke:none"
           id="path200" /></g><g
         id="g202"
         transform="scale(1.45354)"><path
           d="m 16232,1595.9 c 0,0 68,-62.06 54.7,-106.16 -13.3,-44.03 -74.6,-73.47 -82.9,-127.34 -8.3,-53.87 -41.5,-83.25 -71.3,-83.25 -29.9,0 -142.3,0 -142.3,0 0,0 -22,37.91 31.1,49.33 53,11.42 73.1,74.72 69.8,133.54 -3.4,58.75 4.9,137.18 4.9,137.18 l 112.8,26.08 23.2,-29.38"
           style="fill:#1f4075;fill-opacity:1;fill-rule:nonzero;stroke:none"
           id="path204" /></g><g
         id="g206"
         transform="scale(1.37418)"><path
           d="m 16287.1,1518.29 c 0,0 12.9,-149.33 -18.7,-164.9 l -404.1,0.87 c 0,0 0,46.58 64.9,56.98 64.9,10.34 179,48.32 198.3,132.96 19.2,84.63 159.6,-25.91 159.6,-25.91"
           style="fill:#1f4075;fill-opacity:1;fill-rule:nonzero;stroke:none"
           id="path208" /></g><g
         id="g210"
         transform="scale(1.39453)"><path
           d="m 15713.2,3575.32 c 0,0 21,-258.01 45.7,-568.15 33.5,-421.29 73.8,-938.74 77.9,-1036.83 6.8,-170.24 34.5,-442.52 34.5,-442.52 0,0 65.7,-64.68 197.1,-37.43 0,0 117.1,388.73 150.6,800.05 0.5,6.74 1,13.49 1.5,20.3 31.1,418.7 79.5,1300.36 79.5,1300.36 l -586.8,-35.78"
           style="fill:#f99746;fill-opacity:1;fill-rule:nonzero;stroke:none"
           id="path212" /></g><g
         id="g214"
         transform="scale(1.39453)"><path
           d="m 15713.2,3575.32 c 0,0 21,-258.01 45.7,-568.15 l 460.1,-716.73 c 0.5,6.74 1,13.49 1.5,20.3 31.1,418.7 79.5,1300.36 79.5,1300.36 l -586.8,-35.78"
           style="fill:#ef7e29;fill-opacity:1;fill-rule:nonzero;stroke:none"
           id="path216" /></g><g
         id="g218"
         transform="scale(1.44748)"><path
           d="m 15230.8,3415.04 c 0,0 364.7,-900.18 604.5,-1323.26 239.8,-423.08 314.8,-541.15 314.8,-541.15 0,0 137.4,54.16 149.9,91.05 0,0 -91.7,816.73 -252.3,1015.84 -90.8,112.47 -197.4,450.09 -202.4,568.16 -4.9,118.07 -32.4,351.71 -32.4,351.71 l -582.1,-162.35"
           style="fill:#f99746;fill-opacity:1;fill-rule:nonzero;stroke:none"
           id="path220" /></g><g
         id="g222"
         transform="scale(1.38046)"><path
           d="m 16300,4996.81 c 0,0 -256.2,-129.95 -406.2,-86.64 0,0 35.7,47.09 99.3,82.8 -5.7,29.85 -10.3,55.71 -13.1,77.73 -7.3,50.71 -7.8,79.47 -7.8,79.47 l 98.2,80.48 93.2,77 c -3.3,-211.38 136.4,-310.84 136.4,-310.84"
           style="fill:#ffb27d;fill-opacity:1;fill-rule:nonzero;stroke:none"
           id="path224" /></g><g
         id="g226"
         transform="scale(1.40583)"><path
           d="m 16255.7,3610.03 c -101.6,-61.53 -197.8,-107.7 -310.3,-133.66 -132.7,-31.51 -295.9,-22.19 -350.5,-30.52 -5.6,-0.78 -10.9,0.72 -15.9,3.99 -4.3,2.2 -28.4,164.17 -52.5,368.53 -1.1,8.18 -2.2,16.5 -2.6,24.83 l -0.4,2.77 c -9.4,79.88 -17.6,163.82 -24.7,247.97 -5.9,65.44 -10.6,130.17 -14,190.99 -4.2,76.04 -5.9,145.96 -4.2,203.44 0.8,26.24 2.3,49.86 4.7,70.42 14.4,119.36 71.3,204.65 124.9,268.16 l 44.5,50.65 c 51.6,-3.27 104.3,6.47 153.9,39.27 54.4,35.78 113.2,78.17 124.3,71.7 83.3,-45.53 150.8,-167.52 199.2,-323.44 27.8,-89.7 49.1,-191.56 62.8,-299.4 4.3,-33.5 8.1,-67.78 10.9,-102 0.6,-6.33 1,-12.66 1.5,-18.85 6.6,-93.47 17.2,-181.1 29,-259.27 16,-105.49 34.1,-193.91 46.9,-256.15 6.4,-31.66 11.3,-56.12 14.2,-73.7 2.6,-15.29 -28.1,-37.2 -41.7,-45.73"
           style="fill:#2b478b;fill-opacity:1;fill-rule:nonzero;stroke:none"
           id="path228" /></g><g
         id="g230"
         transform="scale(1.36919)"><path
           d="m 16300,5269.98 c 0,0 -63.5,-121.46 -188.4,-157.54 -7.4,51.12 -7.9,80.12 -7.9,80.12 l 99,81.14 97.3,-3.72"
           style="fill:#ed985f;fill-opacity:1;fill-rule:nonzero;stroke:none"
           id="path232" /></g><g
         id="g234"
         transform="scale(1.37707)"><path
           d="m 15965.7,5165.37 c 0,0 248.2,-35.51 268.4,116.99 20.3,152.57 65.9,250.68 -91.7,279.87 -157.6,29.12 -196.2,-25.13 -215.5,-74.43 -19.3,-49.31 -25.1,-309.21 38.8,-322.43"
           style="fill:#ffb27d;fill-opacity:1;fill-rule:nonzero;stroke:none"
           id="path236" /></g><g
         id="g238"
         transform="scale(1.38055)"><path
           d="m 16277,5569.87 c 2.2,2.61 7.4,4.78 18.8,5.65 0,0 -9.3,5.58 -21.6,5.58 -2.7,15.94 -11.8,44.11 -39.5,50.42 0,0 15,-7.61 17.3,-24.56 -32.5,32.09 -101.3,54.62 -290.1,35.93 -248.8,-24.63 -163.6,-182.61 -130.9,-200.94 32.7,-18.4 112.8,35.35 173,31.8 60.2,-3.62 73.4,-90.25 94.1,-101.77 20.5,-11.51 12.1,9.42 39.4,22.46 27.4,12.96 31,-32.67 23.6,-62.59 -7.4,-29.84 31.3,-68.3 31.3,-68.3 0,0 0,0 37.5,42.01 37.4,42.01 70.1,217.52 51.9,254.39 -1.6,3.26 -3.2,6.59 -4.8,9.92"
           style="fill:#2c3a64;fill-opacity:1;fill-rule:nonzero;stroke:none"
           id="path240" /></g><g
         id="g242"
         transform="scale(1.37194)"><path
           d="m 16300,4585.61 c 0,0 -210,-159.85 -432.7,-194.83 -4.3,77.91 -6,149.56 -4.3,208.46 l 437,-13.63"
           style="fill:#233862;fill-opacity:1;fill-rule:nonzero;stroke:none"
           id="path244" /></g><g
         id="g246"
         transform="scale(1.26337)"><path
           d="m 16300,5203.61 c -3.6,3.87 -50.1,159.33 -130.5,148.01 -52.5,-7.36 -138.2,-37.76 -115.5,-106.93 9,-27.15 168.9,-120.79 168.9,-120.79 l 77.1,79.71"
           style="fill:#ffb27d;fill-opacity:1;fill-rule:nonzero;stroke:none"
           id="path248" /></g><g
         id="g250"
         transform="scale(1.38421)"><path
           d="m 16181.3,4850.98 c 118.7,-71.01 109.1,-247.86 -17.9,-302.77 -2.6,-1.15 -5.2,-2.24 -7.8,-3.25 -195.5,-78.46 -777.1,-87.12 -909,-72.68 -143.2,15.68 -449.3,191.52 -449.3,191.52 0,0 27,98.54 82.6,114 0,0 323.4,-91.61 447.6,-98.76 78.6,-4.47 650.7,301.04 756.4,232.27 28,-18.21 62.2,-39.23 97.4,-60.33"
           style="fill:#2b478b;fill-opacity:1;fill-rule:nonzero;stroke:none"
           id="path252" /></g><g
         id="g254"
         transform="scale(1.13263)"><path
           d="m 16300,2493.93 -1616.9,-79.55 v 1616.94 l 1616.9,79.46 V 2493.93"
           style="fill:#f9dec7;fill-opacity:1;fill-rule:nonzero;stroke:none"
           id="path256" /></g><g
         id="g258"
         transform="scale(1.12431)"><path
           d="m 14914.1,2624.36 481.1,891.12 353.8,-465.17 176.6,201.81 374.4,-559.63 -1385.9,-68.13"
           style="fill:#fff7f0;fill-opacity:1;fill-rule:nonzero;stroke:none"
           id="path260" /></g><g
         id="g262"
         transform="scale(1.0949)"><path
           d="m 16044.3,3749.31 c 0,70.69 57.2,130.69 127.8,134.16 70.6,3.48 127.9,-50.96 127.9,-121.56 0,-70.6 -57.3,-130.7 -127.9,-134.17 -70.6,-3.47 -127.8,50.97 -127.8,121.57"
           style="fill:#fff7f0;fill-opacity:1;fill-rule:nonzero;stroke:none"
           id="path264" /></g><g
         id="g266"
         transform="scale(1.46651)"><path
           d="m 16300,6701.15 -1799.1,-88.37 v 1799.07 l 1799.1,88.42 V 6701.15"
           style="fill:#f9dec7;fill-opacity:1;fill-rule:nonzero;stroke:none"
           id="path268" /></g><g
         id="g270"
         transform="scale(1.45452)"><path
           d="m 14756.6,6881.18 535.9,992.3 393.9,-518 196.7,224.7 416.9,-623.15 -1543.4,-75.85"
           style="fill:#fff7f0;fill-opacity:1;fill-rule:nonzero;stroke:none"
           id="path272" /></g><g
         id="g274"
         transform="scale(1.41214)"><path
           d="m 16014.3,8265.51 c 0,78.87 64,145.95 142.9,149.83 78.9,3.88 142.8,-56.92 142.8,-135.79 0,-78.87 -63.9,-145.96 -142.8,-149.84 -78.9,-3.87 -142.9,56.92 -142.9,135.8"
           style="fill:#fff7f0;fill-opacity:1;fill-rule:nonzero;stroke:none"
           id="path276" /></g><g
         id="g278"
         transform="scale(1.17856)"><path
           d="m 16300,6649.4 -2189.1,-107.59 v 127.52 L 16300,6776.92 V 6649.4"
           style="fill:#f99746;fill-opacity:1;fill-rule:nonzero;stroke:none"
           id="path280" /></g><g
         id="g282"
         transform="scale(1.10513)"><path
           d="m 16300,6762.7 -1251.6,-61.53 v 68.05 l 1251.6,61.44 v -67.96"
           style="fill:#f9dec7;fill-opacity:1;fill-rule:nonzero;stroke:none"
           id="path284" /></g><g
         id="g286"
         transform="scale(1.08026)"><path
           d="m 16300,6668.56 -905.1,-44.53 v 69.52 l 905.1,44.53 v -69.52"
           style="fill:#f9dec7;fill-opacity:1;fill-rule:nonzero;stroke:none"
           id="path288" /></g><g
         id="g290"
         transform="scale(1.15189)"><path
           d="m 16300,6303.73 -848.8,-41.76 v 65.2 l 848.8,41.76 v -65.2"
           style="fill:#f9dec7;fill-opacity:1;fill-rule:nonzero;stroke:none"
           id="path292" /></g><g
         id="g294"
         transform="scale(1.23353)"><path
           d="m 16300,5939.47 -965.8,-47.43 v 60.89 l 965.8,47.5 v -60.96"
           style="fill:#f9dec7;fill-opacity:1;fill-rule:nonzero;stroke:none"
           id="path296" /></g><g
         id="g298"
         transform="scale(1.07235)"><path
           d="m 16300,6483.52 -791.5,-38.98 v 70.13 l 791.5,38.88 v -70.03"
           style="fill:#f9dec7;fill-opacity:1;fill-rule:nonzero;stroke:none"
           id="path300" /></g><g
         id="g302"
         transform="scale(1.13454)"><path
           d="m 16300,6172.02 -748.1,-36.76 v 66.2 l 748.1,36.75 v -66.19"
           style="fill:#f9dec7;fill-opacity:1;fill-rule:nonzero;stroke:none"
           id="path304" /></g><g
         id="g306"
         transform="scale(1.20541)"><path
           d="m 16300,5856.26 -858,-42.23 v 62.39 l 858,42.14 v -62.3"
           style="fill:#f9dec7;fill-opacity:1;fill-rule:nonzero;stroke:none"
           id="path308" /></g><g
         id="g310"
         transform="scale(1.17856)"><path
           d="m 16300,8088.27 -2189.1,-107.59 v 127.53 L 16300,8215.8 v -127.53"
           style="fill:#f99746;fill-opacity:1;fill-rule:nonzero;stroke:none"
           id="path312" /></g><g
         id="g314"
         transform="scale(1.10513)"><path
           d="m 16300,8297.18 -1251.6,-61.53 v 68.04 l 1251.6,61.53 v -68.04"
           style="fill:#f9dec7;fill-opacity:1;fill-rule:nonzero;stroke:none"
           id="path316" /></g><g
         id="g318"
         transform="scale(1.20646)"><path
           d="m 16300,7667.64 -1146.4,-56.37 v 62.34 l 1146.4,56.28 v -62.25"
           style="fill:#f9dec7;fill-opacity:1;fill-rule:nonzero;stroke:none"
           id="path320" /></g><g
         id="g322"
         transform="scale(1.08026)"><path
           d="m 16300,8238.36 -905.1,-44.53 v 69.61 l 905.1,44.44 v -69.52"
           style="fill:#f9dec7;fill-opacity:1;fill-rule:nonzero;stroke:none"
           id="path324" /></g><g
         id="g326"
         transform="scale(1.15189)"><path
           d="m 16300,7775.92 -848.8,-41.76 v 65.29 l 848.8,41.67 v -65.2"
           style="fill:#f9dec7;fill-opacity:1;fill-rule:nonzero;stroke:none"
           id="path328" /></g><g
         id="g330"
         transform="scale(1.23353)"><path
           d="m 16300,7314.31 -965.8,-47.51 v 60.96 l 965.8,47.43 v -60.88"
           style="fill:#f9dec7;fill-opacity:1;fill-rule:nonzero;stroke:none"
           id="path332" /></g><g
         id="g334"
         transform="scale(1.07235)"><path
           d="m 16300,8064.9 -791.5,-38.88 v 70.03 l 791.5,38.89 v -70.04"
           style="fill:#f9dec7;fill-opacity:1;fill-rule:nonzero;stroke:none"
           id="path336" /></g><g
         id="g338"
         transform="scale(1.13454)"><path
           d="m 16300,7666.72 -748.1,-36.75 v 66.19 l 748.1,36.76 v -66.2"
           style="fill:#f9dec7;fill-opacity:1;fill-rule:nonzero;stroke:none"
           id="path340" /></g><g
         id="g342"
         transform="scale(1.20541)"><path
           d="m 16300,7263.08 -858,-42.14 v 62.3 l 858,42.15 v -62.31"
           style="fill:#f9dec7;fill-opacity:1;fill-rule:nonzero;stroke:none"
           id="path344" /></g><g
         id="g346"
         transform="scale(1.41507)"><path
           d="m 16300,6588.63 -1282.5,-63.03 v 74.69 l 1282.5,63.04 v -74.7"
           style="fill:#f99746;fill-opacity:1;fill-rule:nonzero;stroke:none"
           id="path348" /></g><g
         id="g350"
         transform="scale(1.36342)"><path
           d="m 16300,6650.91 -713.6,-35.06 v 38.8 l 713.6,35.05 v -38.79"
           style="fill:#f9dec7;fill-opacity:1;fill-rule:nonzero;stroke:none"
           id="path352" /></g><g
         id="g354"
         transform="scale(1.43471)"><path
           d="m 16300,6360.26 -678.2,-33.32 v 36.87 l 678.2,33.32 v -36.87"
           style="fill:#f9dec7;fill-opacity:1;fill-rule:nonzero;stroke:none"
           id="path356" /></g><g
         id="g358"
         transform="scale(1.34593)"><path
           d="m 16300,6596.35 -511,-25.19 v 39.3 l 511,25.12 v -39.23"
           style="fill:#f9dec7;fill-opacity:1;fill-rule:nonzero;stroke:none"
           id="path360" /></g><g
         id="g362"
         transform="scale(1.39632)"><path
           d="m 16300,6387.15 -492.6,-24.21 v 37.89 l 492.6,24.21 v -37.89"
           style="fill:#f9dec7;fill-opacity:1;fill-rule:nonzero;stroke:none"
           id="path364" /></g><g
         id="g366"
         transform="scale(1.45375)"><path
           d="m 16300,6166.47 -576.5,-28.34 v 36.39 l 576.5,28.34 v -36.39"
           style="fill:#f9dec7;fill-opacity:1;fill-rule:nonzero;stroke:none"
           id="path368" /></g><g
         id="g370"
         transform="scale(1.34037)"><path
           d="m 16300,6491.8 -445.5,-21.86 v 39.39 l 445.5,21.94 v -39.47"
           style="fill:#f9dec7;fill-opacity:1;fill-rule:nonzero;stroke:none"
           id="path372" /></g><g
         id="g374"
         transform="scale(1.38411)"><path
           d="m 16300,6312 -431.4,-21.24 v 38.21 l 431.4,21.17 V 6312"
           style="fill:#f9dec7;fill-opacity:1;fill-rule:nonzero;stroke:none"
           id="path376" /></g><g
         id="g378"
         transform="scale(1.43397)"><path
           d="m 16300,6120.35 -507.4,-24.89 v 36.82 l 507.4,24.96 v -36.89"
           style="fill:#f9dec7;fill-opacity:1;fill-rule:nonzero;stroke:none"
           id="path380" /></g><g
         id="g382"
         transform="scale(1.17856)"><path
           d="m 16300,5148.41 -2189.1,-107.59 v 127.53 l 2189.1,107.59 v -127.53"
           style="fill:#f99746;fill-opacity:1;fill-rule:nonzero;stroke:none"
           id="path384" /></g><g
         id="g386"
         transform="scale(1.10513)"><path
           d="m 16300,5161.99 -1251.6,-61.53 v 67.96 l 1251.6,61.53 v -67.96"
           style="fill:#f9dec7;fill-opacity:1;fill-rule:nonzero;stroke:none"
           id="path388" /></g><g
         id="g390"
         transform="scale(1.20646)"><path
           d="m 16300,4795.76 -1146.4,-56.36 v 62.25 l 1146.4,56.36 v -62.25"
           style="fill:#f9dec7;fill-opacity:1;fill-rule:nonzero;stroke:none"
           id="path392" /></g><g
         id="g394"
         transform="scale(1.08026)"><path
           d="m 16300,5030.99 -905.1,-44.52 v 69.52 l 905.1,44.53 v -69.53"
           style="fill:#f9dec7;fill-opacity:1;fill-rule:nonzero;stroke:none"
           id="path396" /></g><g
         id="g398"
         transform="scale(1.15189)"><path
           d="m 16300,4767.91 -848.8,-41.67 v 65.19 l 848.8,41.76 v -65.28"
           style="fill:#f9dec7;fill-opacity:1;fill-rule:nonzero;stroke:none"
           id="path400" /></g><g
         id="g402"
         transform="scale(1.23353)"><path
           d="m 16300,4505.37 -965.8,-47.42 v 60.88 l 965.8,47.5 v -60.96"
           style="fill:#f9dec7;fill-opacity:1;fill-rule:nonzero;stroke:none"
           id="path404" /></g><g
         id="g406"
         transform="scale(1.07235)"><path
           d="m 16300,4833.78 -791.5,-38.89 v 70.13 l 791.5,38.88 v -70.12"
           style="fill:#f9dec7;fill-opacity:1;fill-rule:nonzero;stroke:none"
           id="path408" /></g><g
         id="g410"
         transform="scale(1.13454)"><path
           d="m 16300,4612.79 -748.1,-36.84 v 66.29 l 748.1,36.75 v -66.2"
           style="fill:#f9dec7;fill-opacity:1;fill-rule:nonzero;stroke:none"
           id="path412" /></g><g
         id="g414"
         transform="scale(1.20541)"><path
           d="m 16300,4388.63 -858,-42.14 v 62.3 l 858,42.22 v -62.38"
           style="fill:#f9dec7;fill-opacity:1;fill-rule:nonzero;stroke:none"
           id="path416" /></g><g
         id="g418"
         transform="scale(1.28386)"><path
           d="m 16300,2890.65 -1552.2,-76.26 v 117.07 l 1552.2,76.26 v -117.07"
           style="fill:#f99746;fill-opacity:1;fill-rule:nonzero;stroke:none"
           id="path420" /></g><g
         id="g422"
         transform="scale(1.22715)"><path
           d="m 16300,2739.36 -870.6,-42.78 v 61.2 l 870.6,42.78 v -61.2"
           style="fill:#f9dec7;fill-opacity:1;fill-rule:nonzero;stroke:none"
           id="path424" /></g><g
         id="g426"
         transform="scale(1.30542)"><path
           d="m 16300,2623.15 -818.4,-40.22 v 57.53 l 818.4,40.21 v -57.52"
           style="fill:#f9dec7;fill-opacity:1;fill-rule:nonzero;stroke:none"
           id="path428" /></g><g
         id="g430"
         transform="scale(1.20794)"><path
           d="m 16300,2563.21 -625.2,-30.71 v 62.17 l 625.2,30.71 v -62.17"
           style="fill:#f9dec7;fill-opacity:1;fill-rule:nonzero;stroke:none"
           id="path432" /></g><g
         id="g434"
         transform="scale(1.26327)"><path
           d="m 16300,2486.01 -597.9,-29.37 v 59.45 l 597.9,29.45 v -59.53"
           style="fill:#f9dec7;fill-opacity:1;fill-rule:nonzero;stroke:none"
           id="path436" /></g><g
         id="g438"
         transform="scale(1.32633)"><path
           d="m 16300,2405.9 -693.8,-34.08 v 56.69 l 693.8,34.08 v -56.69"
           style="fill:#f9dec7;fill-opacity:1;fill-rule:nonzero;stroke:none"
           id="path440" /></g><g
         id="g442"
         transform="scale(1.20183)"><path
           d="m 16300,2368.39 -545.5,-26.79 v 62.57 l 545.5,26.79 v -62.57"
           style="fill:#f9dec7;fill-opacity:1;fill-rule:nonzero;stroke:none"
           id="path444" /></g><g
         id="g446"
         transform="scale(1.24987)"><path
           d="m 16300,2308.17 -524.6,-25.76 v 60.08 l 524.6,25.77 v -60.09"
           style="fill:#f9dec7;fill-opacity:1;fill-rule:nonzero;stroke:none"
           id="path448" /></g><g
         id="g450"
         transform="scale(1.30461)"><path
           d="m 16300,2244.97 -612.4,-30.13 v 57.57 l 612.4,30.12 v -57.56"
           style="fill:#f9dec7;fill-opacity:1;fill-rule:nonzero;stroke:none"
           id="path452" /></g><path
         d="m 15194.6,8925.3 -2875.1,104.4 v 2875.1 l 2875.1,-104.4 V 8925.3"
         style="fill:#f9dec7;fill-opacity:1;fill-rule:nonzero;stroke:none"
         id="path454" /><path
         d="m 12535.5,9350.3 849.2,1500.2 624.5,-874.4 311.8,329.5 660.7,-1044.1 -2446.2,88.8"
         style="fill:#fff7f0;fill-opacity:1;fill-rule:nonzero;stroke:none"
         id="path456" /><path
         d="m 13789.4,11055.6 c 0,121.4 98.4,216.2 219.8,211.8 121.3,-4.4 219.7,-106.4 219.7,-227.8 0,-121.3 -98.4,-216.2 -219.7,-211.7 -121.4,4.4 -219.8,106.3 -219.8,227.7"
         style="fill:#fff7f0;fill-opacity:1;fill-rule:nonzero;stroke:none"
         id="path458" /><path
         d="m 14851.1,7791.5 -2579.9,93.7 v 150.3 l 2579.9,-93.7 v -150.3"
         style="fill:#f99746;fill-opacity:1;fill-rule:nonzero;stroke:none"
         id="path460" /><path
         d="m 13654.3,7530.8 -1383.1,50.2 v 75.1 l 1383.1,-50.2 v -75.1"
         style="fill:#f9dec7;fill-opacity:1;fill-rule:nonzero;stroke:none"
         id="path462" /><path
         d="m 13248.9,7295.5 -977.7,35.5 v 75.1 l 977.7,-35.5 v -75.1"
         style="fill:#f9dec7;fill-opacity:1;fill-rule:nonzero;stroke:none"
         id="path464" /><path
         d="m 14416.5,7253.1 -977.8,35.5 v 75.1 l 977.8,-35.4 v -75.2"
         style="fill:#f9dec7;fill-opacity:1;fill-rule:nonzero;stroke:none"
         id="path466" /><path
         d="m 15747.1,7204.8 -1191.3,43.3 v 75.1 l 1191.3,-43.2 v -75.2"
         style="fill:#f9dec7;fill-opacity:1;fill-rule:nonzero;stroke:none"
         id="path468" /><path
         d="m 13120,7055.3 -848.8,30.8 v 75.2 l 848.8,-30.9 v -75.1"
         style="fill:#f9dec7;fill-opacity:1;fill-rule:nonzero;stroke:none"
         id="path470" /><path
         d="m 14133.6,7018.5 -848.8,30.8 v 75.2 l 848.8,-30.8 v -75.2"
         style="fill:#f9dec7;fill-opacity:1;fill-rule:nonzero;stroke:none"
         id="path472" /><path
         d="m 15288.9,6976.6 -1034.3,37.5 v 75.2 l 1034.3,-37.6 v -75.1"
         style="fill:#f9dec7;fill-opacity:1;fill-rule:nonzero;stroke:none"
         id="path474" /><path
         d="m 14851.1,6022.5 -2579.9,93.7 v 150.3 l 2579.9,-93.7 v -150.3"
         style="fill:#f99746;fill-opacity:1;fill-rule:nonzero;stroke:none"
         id="path476" /><path
         d="m 13654.3,5761.8 -1383.1,50.2 v 75.1 l 1383.1,-50.2 v -75.1"
         style="fill:#f9dec7;fill-opacity:1;fill-rule:nonzero;stroke:none"
         id="path478" /><path
         d="m 15306,5701.8 -1383.2,50.2 v 75.2 L 15306,5777 v -75.2"
         style="fill:#f9dec7;fill-opacity:1;fill-rule:nonzero;stroke:none"
         id="path480" /><path
         d="m 13248.9,5526.5 -977.7,35.5 v 75.1 l 977.7,-35.5 v -75.1"
         style="fill:#f9dec7;fill-opacity:1;fill-rule:nonzero;stroke:none"
         id="path482" /><path
         d="m 14416.5,5484.1 -977.8,35.5 v 75.1 l 977.8,-35.5 v -75.1"
         style="fill:#f9dec7;fill-opacity:1;fill-rule:nonzero;stroke:none"
         id="path484" /><path
         d="m 15747.1,5435.8 -1191.3,43.3 v 75.1 l 1191.3,-43.3 v -75.1"
         style="fill:#f9dec7;fill-opacity:1;fill-rule:nonzero;stroke:none"
         id="path486" /><path
         d="m 13120,5286.3 -848.8,30.8 v 75.2 l 848.8,-30.9 v -75.1"
         style="fill:#f9dec7;fill-opacity:1;fill-rule:nonzero;stroke:none"
         id="path488" /><path
         d="m 14133.6,5249.5 -848.8,30.8 v 75.2 l 848.8,-30.9 v -75.1"
         style="fill:#f9dec7;fill-opacity:1;fill-rule:nonzero;stroke:none"
         id="path490" /><path
         d="m 15288.9,5207.6 -1034.3,37.5 v 75.2 l 1034.3,-37.6 v -75.1"
         style="fill:#f9dec7;fill-opacity:1;fill-rule:nonzero;stroke:none"
         id="path492" /><path
         d="m 11185.3,12183.2 -2579.99,93.7 v 150.2 l 2579.99,-93.6 v -150.3"
         style="fill:#f99746;fill-opacity:1;fill-rule:nonzero;stroke:none"
         id="path494" /><path
         d="m 9988.44,11922.5 -1383.13,50.2 v 75.1 l 1383.13,-50.2 v -75.1"
         style="fill:#f9dec7;fill-opacity:1;fill-rule:nonzero;stroke:none"
         id="path496" /><path
         d="m 11640.1,11862.5 -1383.1,50.2 v 75.1 l 1383.1,-50.2 v -75.1"
         style="fill:#f9dec7;fill-opacity:1;fill-rule:nonzero;stroke:none"
         id="path498" /><path
         d="m 9583.05,11687.2 -977.74,35.5 v 75.1 l 977.74,-35.5 v -75.1"
         style="fill:#f9dec7;fill-opacity:1;fill-rule:nonzero;stroke:none"
         id="path500" /><path
         d="m 10750.6,11644.8 -977.71,35.5 v 75.1 l 977.71,-35.5 v -75.1"
         style="fill:#f9dec7;fill-opacity:1;fill-rule:nonzero;stroke:none"
         id="path502" /><path
         d="m 12081.3,11596.5 -1191.4,43.2 v 75.2 l 1191.4,-43.3 v -75.1"
         style="fill:#f9dec7;fill-opacity:1;fill-rule:nonzero;stroke:none"
         id="path504" /><path
         d="m 9454.14,11447 -848.83,30.8 v 75.1 l 848.83,-30.8 v -75.1"
         style="fill:#f9dec7;fill-opacity:1;fill-rule:nonzero;stroke:none"
         id="path506" /><path
         d="m 10467.8,11410.2 -848.85,30.8 v 75.1 l 848.85,-30.8 v -75.1"
         style="fill:#f9dec7;fill-opacity:1;fill-rule:nonzero;stroke:none"
         id="path508" /><path
         d="m 11623,11368.2 -1034.3,37.6 v 75.1 l 1034.3,-37.5 v -75.2"
         style="fill:#f9dec7;fill-opacity:1;fill-rule:nonzero;stroke:none"
         id="path510" /><path
         d="m 10270.3,14628.4 -234.2,326.6 -62.31,-397.1 z m -414.29,595.5 226.39,53.7 745.3,-1010.3 -256.7,-61 -161.5,226.1 -471.89,-112.2 -42.57,-274.5 -250.3,-59.5 211.27,1237.7"
         style="fill:#afcdfb;fill-opacity:1;fill-rule:nonzero;stroke:none"
         id="path512" /><g
         id="g514"
         transform="scale(1.00928)"><path
           d="m 11023.4,15739.2 c 32,321.5 300.5,560.8 647.9,526.3 213.2,-21.2 324.8,-113.9 419.5,-227.7 l -165.7,-156.5 c -79.3,87.9 -149,142.1 -278.3,154.9 -190.6,19 -343.7,-125.7 -363.2,-322.8 -19.3,-193.9 98.8,-368.8 292.7,-388.1 129.2,-12.8 213.5,31 310.4,103 l 141.5,-185.4 c -128.7,-112.8 -264.7,-167.9 -482.8,-146.2 -332.8,33.1 -554.5,314.5 -522,642.5"
           style="fill:#afcdfb;fill-opacity:1;fill-rule:nonzero;stroke:none"
           id="path516" /></g><g
         id="g518"
         transform="scale(1.00005)"><path
           d="m 15269,15367.2 c 110,17.8 170,67.3 155.9,154.7 -12.3,76 -76.4,113.8 -204.2,93.1 l -288,-46.5 40.2,-249.1 z m -140,445.5 c 110,17.7 173.8,64.6 159.7,151.9 -12,74.4 -77,107.1 -182.2,90.1 l -245.9,-39.7 38.7,-239.4 z m -546.3,381.5 525.8,84.9 c 129.4,20.9 237,1.8 312.2,-52.5 60.1,-43.4 96.2,-102.3 109.3,-183.2 20.6,-127.8 -35.9,-209.9 -109.4,-268.3 139.1,-29 232.3,-92 257.3,-247.3 33.5,-207 -118.1,-337.7 -373.7,-379 l -538.7,-86.9 -182.8,1132.3"
           style="fill:#afcdfb;fill-opacity:1;fill-rule:nonzero;stroke:none"
           id="path520" /></g><path
         d="m 12610.6,14302.8 c 27.7,324.9 303.4,569.5 649.5,540.1 205.8,-17.5 325.1,-83.5 435.7,-194.9 l -174.6,-177.6 c -81.9,81 -156.7,130.1 -289,141.4 -182.8,15.5 -341.9,-133.8 -358.7,-331.4 -17.8,-209 112.9,-374.7 315.3,-391.9 91.5,-7.7 175.1,8.2 242.6,48.5 l 13.9,163.3 -253.1,21.5 18.5,217.1 496.4,-42.2 -42.2,-496.3 c -126.1,-89.6 -294.7,-157.5 -503.7,-139.8 -355.9,30.3 -579.6,300.9 -550.6,642.2"
         style="fill:#afcdfb;fill-opacity:1;fill-rule:nonzero;stroke:none"
         id="path522" /><g
         id="g524"
         transform="scale(1.65529)"><path
           d="m 15947.4,8020.42 -90.5,117.31 117.4,86.46 90.1,-124.3 c 18.5,25.42 30.9,55.19 38.5,91.03 24.6,116.22 -40.2,231.1 -160.3,256.51 -120.1,25.41 -223.5,-51.88 -248.5,-170.04 -24.6,-116.22 40.2,-231.11 160.3,-256.52 32.9,-6.97 64.4,-6.54 93,-0.45 z m 89.7,-121.18 c -64.9,-24.71 -138.2,-31.47 -213.8,-15.49 -209.2,44.26 -326.3,231.95 -285.1,426.63 40.8,192.74 226.2,318.44 435.5,274.18 209.2,-44.27 326.3,-231.96 285.1,-426.63 -15,-70.71 -50.6,-133.99 -101.3,-181.98 l 57.3,-73.83 -117.2,-85.48 -60.5,82.6"
           style="fill:#afcdfb;fill-opacity:1;fill-rule:nonzero;stroke:none"
           id="path526" /></g><g
         id="g528"
         transform="scale(1.54163)"><path
           d="m 15544.9,10053.3 149.6,20.3 407,-407.17 -61.5,453.97 160.1,21.7 99.9,-737.33 -138,-18.69 -420.6,420.35 63.5,-468.74 -160.1,-21.69 -99.9,737.3"
           style="fill:#afcdfb;fill-opacity:1;fill-rule:nonzero;stroke:none"
           id="path530" /></g><g
         id="g532"
         transform="scale(1.11747)"><path
           d="m 14751,13329.9 240.6,-25 139.7,-713.4 301.1,670.5 192.5,-20 156.9,-718.1 283.4,669.4 234.8,-24.4 -455.5,-992 -195.4,20.3 -161.1,691.9 -299.9,-644 -195.4,20.3 -241.7,1064.5"
           style="fill:#afcdfb;fill-opacity:1;fill-rule:nonzero;stroke:none"
           id="path534" /></g><path
         d="m 4695.88,2200.4 c 0,-13.8 0.82,-27.5 2.55,-40.9 5.17,-42.9 18.45,-83.3 38.16,-119.6 15.45,-28.4 34.9,-54.2 57.53,-76.8 60.79,-60.7 144.58,-98.2 237.28,-98.2 h 4718.81 c 185.3,0 335.59,150.2 335.59,335.5 0,92.7 -37.5,176.6 -98.31,237.3 -60.71,60.8 -144.59,98.3 -237.28,98.3 H 5031.4 c -185.3,0 -335.52,-150.2 -335.52,-335.6"
         style="fill:#f78248;fill-opacity:1;fill-rule:nonzero;stroke:none"
         id="path536" /><path
         d="m 5055.81,2596.7 h 1617.91 c 28.32,0 51.49,23.2 51.49,51.5 0,28.3 -23.17,51.5 -51.49,51.5 H 5055.81 c -28.32,0 -51.5,-23.2 -51.5,-51.5 0,-28.3 23.18,-51.5 51.5,-51.5"
         style="fill:#f78248;fill-opacity:1;fill-rule:nonzero;stroke:none"
         id="path538" /><path
         d="m 5145.17,2536 h 175.37 v 60.7 H 5145.17 V 2536"
         style="fill:#ea642f;fill-opacity:1;fill-rule:nonzero;stroke:none"
         id="path540" /><path
         d="m 4736.59,2039.9 c 15.45,-28.4 34.9,-54.2 57.53,-76.8 60.79,-60.7 144.58,-98.2 237.28,-98.2 h 999.54 v 175 H 4736.59"
         style="fill:#ea642f;fill-opacity:1;fill-rule:nonzero;stroke:none"
         id="path542" /><path
         d="m 10710.4,2298.7 v -196.6 c 0,-21.5 -2.9,-42.4 -8.3,-62.2 -27.2,-100.9 -119.4,-175 -228.9,-175 H 5557.76 c -109.51,0 -201.66,74.1 -228.92,175 -5.36,19.8 -8.26,40.7 -8.26,62.2 v 196.6 c 0,131.1 106.14,237.3 237.18,237.3 h 4915.44 c 131.1,0 237.2,-106.2 237.2,-237.3"
         style="fill:#f99746;fill-opacity:1;fill-rule:nonzero;stroke:none"
         id="path544" /><path
         d="m 10702.1,2039.9 c -27.2,-100.9 -119.4,-175 -228.9,-175 H 5557.76 c -109.51,0 -201.66,74.1 -228.92,175 h 5373.26"
         style="fill:#ef873a;fill-opacity:1;fill-rule:nonzero;stroke:none"
         id="path546" /><path
         d="m 10222.2,2199.2 c 0,-104.2 37.9,-197.4 97.6,-259.1 1.4,-1.4 2.7,-2.7 4,-4.1 46.2,-46 104.7,-73.5 168.4,-73.5 99.5,0 346.2,150.1 499,249.8 76.2,49.7 129.1,86.9 129.1,86.9 0,0 -52.9,37.2 -129.1,86.9 -152.8,99.8 -399.5,249.9 -499,249.9 -28.8,0 -56.5,-5.6 -82.6,-16 -43.9,-17.6 -83,-48.9 -113.8,-89.8 -34,-44.9 -58.1,-101.4 -68.3,-164.2 l -0.3,-2.2 c -3.3,-20.8 -5,-42.4 -5,-64.6"
         style="fill:#cde0fb;fill-opacity:1;fill-rule:nonzero;stroke:none"
         id="path548" /><path
         d="m 10222.2,2199.2 c 0,-104.2 37.9,-197.4 97.6,-259.1 l 756.6,260.3 -849.2,63.4 c -3.3,-20.8 -5,-42.4 -5,-64.6"
         style="fill:#a6c7ed;fill-opacity:1;fill-rule:nonzero;stroke:none"
         id="path550" /><path
         d="m 10295.8,2430.2 754.8,-206.1 -641,295.9 c -43.9,-17.6 -83,-48.9 -113.8,-89.8"
         style="fill:#e3f0ff;fill-opacity:1;fill-rule:nonzero;stroke:none"
         id="path552" /><path
         d="m 10942,2199.2 c 0,-40.1 20.5,-74.2 49.2,-86.9 76.2,49.7 129.1,86.9 129.1,86.9 0,0 -52.9,37.2 -129.1,86.9 -28.7,-12.6 -49.2,-46.7 -49.2,-86.9"
         style="fill:#f99746;fill-opacity:1;fill-rule:nonzero;stroke:none"
         id="path554" /><path
         d="m 8750.02,1842.7 v 0 c 33.76,-0.2 69.19,24.5 79.15,55 l 2033.73,6248.2 c 10,30.6 -9.3,55.6 -43.1,55.8 -33.7,0.2 -69.2,-24.5 -79.1,-55 L 8706.91,1898.4 c -9.95,-30.5 9.35,-55.5 43.11,-55.7"
         style="fill:#233862;fill-opacity:1;fill-rule:nonzero;stroke:none"
         id="path556" /><path
         d="m 7110.94,1852.3 v 0 c 33.76,-0.2 69.19,24.4 79.14,55 l 2033.76,6248.2 c 9.95,30.6 -9.35,55.5 -43.11,55.7 -33.76,0.2 -69.19,-24.4 -79.14,-55 L 7067.83,1908 c -9.95,-30.5 9.35,-55.5 43.11,-55.7"
         style="fill:#233862;fill-opacity:1;fill-rule:nonzero;stroke:none"
         id="path558" /><path
         d="m 8875.78,7284.9 1645.92,-9.6 c 31.7,-0.2 65.4,23.1 74.7,51.9 9.4,28.7 -8.9,52.4 -40.7,52.6 l -1645.9,9.6 c -31.73,0.2 -65.35,-23.2 -74.71,-51.9 -9.35,-28.8 8.96,-52.4 40.69,-52.6"
         style="fill:#233862;fill-opacity:1;fill-rule:nonzero;stroke:none"
         id="path560" /><path
         d="m 8520.69,6194 1645.91,-9.6 c 31.8,-0.2 65.4,23.1 74.7,51.9 9.4,28.7 -8.9,52.4 -40.7,52.6 l -1645.88,9.6 c -31.74,0.2 -65.36,-23.2 -74.72,-51.9 -9.35,-28.8 8.96,-52.4 40.69,-52.6"
         style="fill:#233862;fill-opacity:1;fill-rule:nonzero;stroke:none"
         id="path562" /><path
         d="m 8178.7,5143.3 1645.93,-9.6 c 31.74,-0.2 65.36,23.2 74.72,51.9 9.35,28.7 -8.96,52.4 -40.7,52.6 l -1645.93,9.6 c -31.73,0.2 -65.35,-23.2 -74.71,-51.9 -9.35,-28.8 8.96,-52.4 40.69,-52.6"
         style="fill:#233862;fill-opacity:1;fill-rule:nonzero;stroke:none"
         id="path564" /><path
         d="m 7793.7,3960.4 1645.93,-9.6 c 31.73,-0.2 65.35,23.2 74.71,52 9.35,28.7 -8.96,52.4 -40.69,52.6 l -1645.94,9.6 c -31.73,0.1 -65.35,-23.2 -74.71,-52 -9.35,-28.7 8.96,-52.4 40.7,-52.6"
         style="fill:#233862;fill-opacity:1;fill-rule:nonzero;stroke:none"
         id="path566" /><path
         d="m 7390.72,2722.4 1645.93,-9.6 c 31.74,-0.2 65.36,23.2 74.71,51.9 9.36,28.8 -8.95,52.4 -40.69,52.6 l -1645.93,9.6 c -31.73,0.2 -65.36,-23.2 -74.71,-51.9 -9.36,-28.7 8.95,-52.4 40.69,-52.6"
         style="fill:#233862;fill-opacity:1;fill-rule:nonzero;stroke:none"
         id="path568" /><path
         d="m 10434.9,9560.7 c 0,0 19.4,43.8 32,64.5 12.6,20.7 66.5,81.5 75.7,67.7 9.1,-13.7 45.8,-106.3 26.3,-132.2 -19.5,-25.9 1.3,-71 -95.6,-98.3 l -38.4,98.3"
         style="fill:#ffb27d;fill-opacity:1;fill-rule:nonzero;stroke:none"
         id="path570" /><path
         d="m 9358.37,9837.1 c 0,0 495.88,-413.9 689.23,-375.6 151.2,30 383.2,109.5 383.2,109.5 l 46.5,-118.7 c 0,0 -208.1,-282.3 -425.1,-284.1 -339.14,-2.9 -589.7,146.8 -589.7,146.8 l -104.13,522.1"
         style="fill:#ef7e29;fill-opacity:1;fill-rule:nonzero;stroke:none"
         id="path572" /><path
         d="m 8488.7,5471 c 0,0 14.39,-232.2 59.32,-235.5 5.97,-0.5 227.86,-0.5 227.86,-0.5 l 283.26,1.7 c 0,0 -1.86,68.2 -84.66,82.6 -82.79,14.5 -221.37,72.7 -271.53,182.1 -52.76,115.1 -214.25,-30.4 -214.25,-30.4"
         style="fill:#1c3d72;fill-opacity:1;fill-rule:nonzero;stroke:none"
         id="path574" /><path
         d="m 8472.37,5454.9 c 0,0 86.11,-28.8 153.33,-28.8 74.99,0 143.15,20.4 143.15,20.4 0,0 16.21,156.8 105.42,502.2 46.77,181.1 113.56,413.8 208.59,703.1 262.73,799.5 342.63,1267.1 349.92,1311.4 0.39,2.4 0.54,3.5 0.54,3.5 l -0.85,0.4 -807.75,354.7 c 0,0 99.84,-1101.9 -27.54,-1524.8 -17.84,-59.1 -33.12,-128 -46.23,-202.6 -80.44,-459.4 -78.58,-1139.5 -78.58,-1139.5"
         style="fill:#2b478b;fill-opacity:1;fill-rule:nonzero;stroke:none"
         id="path576" /><path
         d="m 8874.27,5948.7 c 46.77,181.1 113.56,413.8 208.59,703.1 262.73,799.5 342.63,1267.1 349.92,1311.4 -0.08,1.4 -0.16,2.6 -0.31,3.9 l -807.75,354.7 c 0,0 99.84,-1101.9 -27.54,-1524.8 -17.84,-59.1 277.09,-848.3 277.09,-848.3"
         style="fill:#233862;fill-opacity:1;fill-rule:nonzero;stroke:none"
         id="path578" /><path
         d="m 9119.59,5471 c 0,0 14.39,-232.2 59.32,-235.5 5.98,-0.5 227.87,-0.5 227.87,-0.5 l 283.25,1.7 c 0,0 -1.86,68.2 -84.65,82.6 -82.8,14.5 -221.38,72.7 -271.54,182.1 -52.76,115.1 -214.25,-30.4 -214.25,-30.4"
         style="fill:#1c3d72;fill-opacity:1;fill-rule:nonzero;stroke:none"
         id="path580" /><path
         d="m 9577.55,8295.8 c 0,0 10.5,-714 -113.04,-1590.6 -123.53,-876.7 -81.66,-1248.8 -81.66,-1248.8 0,0 -84.87,-27.5 -119.12,-30.3 -87.27,-7.1 -176.75,20.4 -176.75,20.4 0,0 -176.81,877 -126.12,1315.8 50.7,438.8 -242.12,1505.7 -242.12,1505.7 l 858.81,27.8"
         style="fill:#2b478b;fill-opacity:1;fill-rule:nonzero;stroke:none"
         id="path582" /><path
         d="m 9004.79,9966.6 157.68,-103.4 143.62,40.7 c 26.25,37.4 33.2,109.6 33.59,172.2 0.38,62 -5.64,114.6 -5.64,114.6 l -212.73,93.9 -79.37,35 c 0.23,-1.2 6.18,-65.2 7.02,-74.5 14.83,-165.8 -44.17,-278.5 -44.17,-278.5"
         style="fill:#ffb27d;fill-opacity:1;fill-rule:nonzero;stroke:none"
         id="path584" /><path
         d="m 9581.17,8097.3 c -196.25,-189.5 -938.99,-157.6 -984.76,51.2 -45.7,208.7 49.91,1777.2 385.16,1875.7 69.56,20.4 441.48,-99.8 441.48,-99.8 0,0 58.36,-152.6 96.63,-347 7.43,-37.8 29.11,-438.6 45.34,-813.6 7.57,-175.4 13.97,-345.1 17.25,-469.4 2.98,-116.5 3.13,-192.9 -1.1,-197.1"
         style="fill:#f99746;fill-opacity:1;fill-rule:nonzero;stroke:none"
         id="path586" /><path
         d="m 9064.87,10242.1 c 43.16,-72.9 194.58,-136.8 274.81,-166 0.38,62 -5.64,114.6 -5.64,114.6 l -212.73,93.9 c -47.02,0.6 -75.67,-9.9 -56.44,-42.5"
         style="fill:#fca56b;fill-opacity:1;fill-rule:nonzero;stroke:none"
         id="path588" /><path
         d="m 9414.28,10203.7 c 0,0 -342.76,-106.9 -406.06,107.5 -63.29,214.5 -150.16,345.2 66,422.5 216.17,77.3 283.03,8.1 321.57,-58.4 38.55,-66.4 106.02,-438.3 18.49,-471.6"
         style="fill:#ffb27d;fill-opacity:1;fill-rule:nonzero;stroke:none"
         id="path590" /><path
         d="m 9382.33,10696 c 0,0 -21.86,-249.6 -73.47,-238.7 -51.61,10.8 -108.43,34 -100.87,-41.3 7.55,-75.2 -50.19,-204.2 -124.62,-203.9 -159.62,0.7 -333.06,410.3 -289.36,488 126.08,224.1 770.56,269.3 588.32,-4.1"
         style="fill:#163560;fill-opacity:1;fill-rule:nonzero;stroke:none"
         id="path592" /><path
         d="m 9331.9,10018.8 c -4.41,1.8 -255.15,114.3 -284.47,104.6 -29.32,-9.6 -65.88,-99.2 -65.88,-99.2 l 441.51,-99.8 c 0,0 -34.75,70.6 -91.16,94.4"
         style="fill:#ef7e29;fill-opacity:1;fill-rule:nonzero;stroke:none"
         id="path594" /><path
         d="M 10892.9,8804.1 9487.38,7480.8 c -27.56,-26 -62.29,-34.2 -77.2,-18.4 l -47.45,50.4 c -14.91,15.8 -4.57,50 22.98,75.9 l 1405.59,1323.4 c 27.5,25.9 62.2,34.2 77.2,18.3 l 47.4,-50.3 c 14.9,-15.9 4.6,-50.1 -23,-76"
         style="fill:#1f4d84;fill-opacity:1;fill-rule:nonzero;stroke:none"
         id="path596" /><path
         d="m 10104.2,8061.5 -616.82,-580.7 c -27.56,-26 -62.29,-34.2 -77.2,-18.4 l -47.45,50.4 c -14.91,15.8 -4.57,50 22.98,75.9 l 616.79,580.8 101.7,-108"
         style="fill:#f78248;fill-opacity:1;fill-rule:nonzero;stroke:none"
         id="path598" /><path
         d="m 10884.7,10320.5 c 242.6,257.9 588.4,360.7 913,304.5 189.1,-32.8 371,-119.4 521.3,-260.8 408.2,-384 427.7,-1026.1 43.7,-1434.2 -141.4,-150.3 -317.6,-247.8 -504.4,-292.1 -320.6,-75.9 -672,5.6 -929.9,248.3 -408.1,384 -427.7,1026.1 -43.7,1434.3 m -314.8,-1016.8 c 53.9,-177.8 153.9,-344.3 298.9,-480.8 443.2,-416.9 1140.4,-395.6 1557.3,47.4 411.4,437.4 396.1,1122 -30.3,1540.6 -5.6,5.6 -11.4,11.2 -17.3,16.6 -443,416.9 -1140.2,395.8 -1557.1,-47.4 -280.4,-298 -362.7,-711 -251.5,-1076.4"
         style="fill:#1f4d84;fill-opacity:1;fill-rule:nonzero;stroke:none"
         id="path600" /><g
         id="g602"><g
           id="g604"
           clip-path="url(#clipPath608)"><path
             d="m 10500.7,8610.5 h 1941.4 v 2029.37 h -1941.4 z"
             style="fill:#d9e3f5;fill-opacity:1;fill-rule:nonzero;stroke:none"
             id="path610" /></g></g><path
         d="m 12442.1,9025.2 -122.6,4.5 v 1334 c 72.7,-68.5 133.1,-145.2 181,-227.3 0.1,-0.2 0.2,-0.3 0.3,-0.5 0.2,-0.3 0.4,-0.6 0.5,-0.8 44.2,-76 77.8,-156.7 100.6,-239.7 0,-0.1 0,-0.1 0.1,-0.2 0.2,-0.7 0.3,-1.3 0.5,-2 32.9,-120.6 43.2,-246.3 30.8,-370.2 l -97.8,-172.7 64.5,-2.4 c -32.3,-113.8 -84.8,-223.3 -157.9,-322.7"
         style="fill:#d6d6e0;fill-opacity:1;fill-rule:nonzero;stroke:none"
         id="path612" /><path
         d="m 12600,9347.9 -64.5,2.4 97.8,172.7 c -6,-58.9 -17.1,-117.6 -33.3,-175.1"
         style="fill:#d9e3f5;fill-opacity:1;fill-rule:nonzero;stroke:none"
         id="path614" /><path
         d="m 11623.5,8610.5 c -7.8,0 -15.6,0.1 -23.4,0.3 7.8,-0.2 15.6,-0.3 23.3,-0.3 79,0 157.9,9.2 234.9,27.4 186.8,44.3 363,141.8 504.4,292.1 28.7,30.5 55.2,62.3 79.4,95.2 73.1,99.4 125.6,208.9 157.9,322.7 16.2,57.5 27.3,116.2 33.3,175.1 12.4,123.9 2.1,249.6 -30.8,370.2 89.8,-329.4 11.3,-696.4 -239.8,-963.2 -141.3,-150.3 -317.6,-247.8 -504.4,-292.1 -77,-18.2 -155.9,-27.4 -234.8,-27.4 m -574.2,178.1 c -42.1,28.9 -82.5,61.5 -120.9,97.6 -408.1,384 -427.7,1026.1 -43.7,1434.3 14.2,15 28.7,29.6 43.5,43.5 -14.8,-13.9 -29.3,-28.5 -43.5,-43.5 -384,-408.2 -364.4,-1050.3 43.7,-1434.3 38.4,-36.1 78.8,-68.7 120.9,-97.6 M 12602,9895.2 c -0.1,0.1 -0.1,0.1 -0.1,0.2 0,-0.1 0,-0.1 0.1,-0.2 m -100.7,239.9 c -0.1,0.2 -0.3,0.5 -0.5,0.8 0.2,-0.3 0.4,-0.6 0.5,-0.8 m -0.8,1.3 c -47.9,82.1 -108.3,158.8 -181,227.3 -0.1,0.2 -0.3,0.4 -0.5,0.5 -35.2,33.1 -72.1,63.3 -110.5,90.4 38.4,-27.1 75.3,-57.2 110.5,-90.4 72.9,-68.6 133.5,-145.5 181.5,-227.8"
         style="fill:#698ebf;fill-opacity:1;fill-rule:nonzero;stroke:none"
         id="path616" /><path
         d="M 9582.27,8294.4 C 8807.8,8846.2 8872.2,9582.6 8872.2,9582.6 9155.26,9423 9436.15,9070 9565.02,8763.8 c 7.57,-175.4 13.97,-345.1 17.25,-469.4"
         style="fill:#ef7e29;fill-opacity:1;fill-rule:nonzero;stroke:none"
         id="path618" /><path
         d="m 10346.6,8545.7 c 54.7,12.6 91.3,53.9 99,61.1 0,0 23.2,-1.6 -3.9,-51.3 -2.2,-4.2 -7.3,-14.8 -11.1,-22.4 -1.5,-3.1 0.6,-6.6 4.1,-6.9 31.5,-2.4 63.2,10.1 123.9,-2.6 8.4,-1.7 10.8,-21.8 10.5,-30.4 -0.6,-14.4 0.5,-30.7 -16.3,-52.8 -9.8,-13 -37.1,-26.8 -97.9,-51.3 -23.1,-9.3 -89.4,-2.3 -151.4,19 l -49.6,23 15.4,92.1 12.4,-2.6 c 19.8,-4.1 44.3,20 64.9,25.1"
         style="fill:#f99746;fill-opacity:1;fill-rule:nonzero;stroke:none"
         id="path620" /><path
         d="m 9112.55,9924.4 c 0,0 -695.88,-132.5 204.74,-1140.2 144.03,-161.2 922.21,-371 922.21,-371 0,0 78.9,67.1 39.2,121.5 0,0 -535.85,389.1 -653.75,450.9 -53.03,27.9 -205.83,621.1 -292.29,763.9 -86.45,142.9 -220.11,174.9 -220.11,174.9"
         style="fill:#f99746;fill-opacity:1;fill-rule:nonzero;stroke:none"
         id="path622" /><path
         d="m 10453.7,9548.5 c 0,0 22.8,43.5 27.2,66.4 4.5,23 33.1,89.9 45,101.7 4.7,4.7 20.3,-1.4 22.1,-21.7 0.8,-8.8 -3.5,-24.9 -11.2,-44 -12.4,-31.1 -10.4,-73.4 -14.7,-87.4 -10.8,-35.1 -68.4,-15 -68.4,-15"
         style="fill:#ffb27d;fill-opacity:1;fill-rule:nonzero;stroke:none"
         id="path624" /><g
         id="g626"
         transform="scale(1.83517)"><path
           d="m 16279.4,958.496 -15217.29,5.232 c -11.33,0 -20.59,9.264 -20.59,20.598 l 0.01,16.234 c 0,11.34 9.27,20.6 20.6,20.6 l 15217.27,-5.23 c 11.3,0 20.6,-9.26 20.6,-20.597 v -16.239 c 0,-11.334 -9.3,-20.598 -20.6,-20.598"
           style="fill:#2e3552;fill-opacity:1;fill-rule:nonzero;stroke:none"
           id="path628" /></g></g></g></svg>
