<svg id="ba581cf8-c738-49d3-b036-1a2609572db8" data-name="Layer 1" xmlns="http://www.w3.org/2000/svg" xmlns:xlink="http://www.w3.org/1999/xlink" viewBox="0 0 340.122 137.608">
  <defs>
    <style>
      .ea985d0c-211c-4131-9ca5-ce55e854c0be, .fa918254-ac81-430e-af47-03c75f8a9748 {
        fill: #ffc8b4;
      }

      .a97a29e1-d7b9-4eb6-9d35-35ac538710d3, .fa918254-ac81-430e-af47-03c75f8a9748 {
        stroke: #ffc8b4;
      }

      .a0128067-ff31-4aa9-9d4b-f3a480684d8d, .a97a29e1-d7b9-4eb6-9d35-35ac538710d3, .e38015c3-9db2-4d00-8969-3b358010f0e1, .fa918254-ac81-430e-af47-03c75f8a9748 {
        stroke-miterlimit: 10;
      }

      .a0128067-ff31-4aa9-9d4b-f3a480684d8d, .f138e420-390d-4611-8b56-fa0c12c67fbf {
        fill: #ff5722;
      }

      .a0128067-ff31-4aa9-9d4b-f3a480684d8d, .e38015c3-9db2-4d00-8969-3b358010f0e1 {
        stroke: #ff5722;
      }

      .a22e5de7-696a-48ce-89c1-2e94c250b456 {
        clip-path: url(#ab0e4ca5-baa8-45d2-a9cd-814af7f21fc1);
      }

      .a97a29e1-d7b9-4eb6-9d35-35ac538710d3, .e38015c3-9db2-4d00-8969-3b358010f0e1 {
        fill: none;
      }

      .fe081f2e-5c5d-4fa9-93c0-10e5e212faa9 {
        clip-path: url(#ee5ea299-dbe1-488c-ad56-94a070b99cd2);
      }

      .aa16c940-e18d-4475-97d2-cd7a18aa527b {
        clip-path: url(#f620e4ed-ed84-46c6-b1ac-bb0b5f6bcf60);
      }

      .f1845099-f686-480a-a3ce-b0767b6ba96f {
        fill: #fff;
      }

      .e501929a-7de1-4d15-98e2-9433ef573208 {
        clip-path: url(#e3078250-267f-49a5-a2dc-2c78f2e82c1f);
      }

      .aa53e5b9-ca18-45d1-9d12-a43e593b3f55 {
        clip-path: url(#bdc8aa36-65b8-428e-ba76-2de020e79d2d);
      }

      .b87ac4c3-0ca8-4031-a8a9-72cd20c34f94 {
        clip-path: url(#e3ac85e2-917f-4928-b047-aec36cbf7808);
      }
    </style>
    <clipPath id="ab0e4ca5-baa8-45d2-a9cd-814af7f21fc1" transform="translate(-15.051 -14.392)">
      <path class="fa918254-ac81-430e-af47-03c75f8a9748" d="M270.743,88.626h0q0-2.81-.257-5.56t-.756-5.413q-.233-1.269-.523-2.515t-.628-2.474q-.592-2.132-1.338-4.2t-1.634-4.055q-.485-1.086-1.01-2.15t-1.094-2.1a28.524,28.524,0,0,0-5.638,12.758q-.094.532-.164,1.072t-.119,1.087q-.066.672-.1,1.351t-.032,1.361q0,.912.056,1.814t.168,1.785c.018.163.039.324.062.486s.049.322.076.485a32.965,32.965,0,0,1,10.018,12.066,32.368,32.368,0,0,1,1.936,4.992q.482-2.624.729-5.324T270.743,88.626Z"/>
    </clipPath>
    <clipPath id="ee5ea299-dbe1-488c-ad56-94a070b99cd2" transform="translate(-15.051 -14.392)">
      <path class="fa918254-ac81-430e-af47-03c75f8a9748" d="M269.731,99.6h0c-.238.11-.473.224-.708.339s-.469.231-.7.347l-.022.009-.022.013-.413.209c-.138.07-.276.14-.414.213a65.277,65.277,0,0,0-22.11,18.734c-.151.2-.3.4-.45.6s-.3.405-.442.608l-.138.195-.138.2c-.071.1-.141.2-.211.3s-.138.2-.206.3v.005q-1.573,2.289-2.956,4.712t-2.551,4.972q-1.128-2.458-2.448-4.8t-2.821-4.562v-.006q-.155-.228-.308-.45t-.309-.442c-.287-.412-.579-.816-.875-1.217s-.6-.8-.9-1.2q-1.408-1.814-2.936-3.53t-3.167-3.319q-.572-.557-1.154-1.1t-1.183-1.068q-2.418-2.139-5.042-4.032t-5.431-3.52q-1.209-.7-2.451-1.351t-2.51-1.246q.231,1.254.514,2.487t.617,2.447a59.411,59.411,0,0,0,7.151,16.094q.918,1.437,1.911,2.816t2.065,2.7a.064.064,0,0,1,.013.017l.009.021q1.149,1.407,2.374,2.744t2.533,2.59q1.485,1.44,3.069,2.771t3.26,2.552q1.156.849,2.36,1.637t2.444,1.523q.783.462,1.583.9t1.614.857h.006q.819-.422,1.623-.863t1.6-.911q1.318-.775,2.595-1.622t2.506-1.754q1.6-1.18,3.115-2.466t2.944-2.668c.043-.038.085-.079.127-.121s.084-.085.128-.128q1.224-1.193,2.375-2.457t2.233-2.6a59.322,59.322,0,0,0,11.81-24.306c0-.014.007-.03.011-.047s.008-.034.011-.051c.022-.094.042-.189.061-.284s.039-.189.058-.284q.086-.377.162-.756C269.637,100.11,269.685,99.856,269.731,99.6Z"/>
    </clipPath>
    <clipPath id="f620e4ed-ed84-46c6-b1ac-bb0b5f6bcf60" transform="translate(-15.051 -14.392)">
      <path class="fa918254-ac81-430e-af47-03c75f8a9748" d="M218.12,76.078h0c0-.221,0-.441-.007-.661s-.012-.44-.021-.658q-.037-.825-.122-1.638t-.208-1.613a28.528,28.528,0,0,0-4.486-11.4c-.039-.021-.079-.04-.118-.059s-.08-.036-.119-.052q-.561,1.017-1.083,2.061t-1,2.109a58.994,58.994,0,0,0-4.9,18.034,60.571,60.571,0,0,0-.34,6.422q0,2.668.23,5.281t.676,5.155c.039-.028.078-.057.115-.087l.113-.089A32.875,32.875,0,0,1,217.14,83.541a28.41,28.41,0,0,0,.73-3.655A29,29,0,0,0,218.12,76.078Z"/>
    </clipPath>
    <clipPath id="e3078250-267f-49a5-a2dc-2c78f2e82c1f" transform="translate(-15.051 -14.392)">
      <path class="a0128067-ff31-4aa9-9d4b-f3a480684d8d" d="M231.792,76.519h0c-.051-.086-.1-.171-.157-.255s-.107-.17-.163-.256v0a43.308,43.308,0,0,0-18.2-15.893,28.528,28.528,0,0,1,4.486,11.4q.125.8.208,1.613t.122,1.638c.009.218.016.438.021.658s.007.44.007.661a29,29,0,0,1-.25,3.808,28.41,28.41,0,0,1-.73,3.655,32.947,32.947,0,0,1,3.2-2.37,32.62,32.62,0,0,1,11.449-4.652Z"/>
    </clipPath>
    <clipPath id="bdc8aa36-65b8-428e-ba76-2de020e79d2d" transform="translate(-15.051 -14.392)">
      <path class="a0128067-ff31-4aa9-9d4b-f3a480684d8d" d="M269.767,99.415h0a32.368,32.368,0,0,0-1.936-4.992,33.024,33.024,0,0,0-10.018-12.066c-.148-.111-.3-.221-.446-.328s-.3-.213-.454-.318q-.963-.664-1.969-1.263t-2.063-1.124q-.662-.33-1.343-.633t-1.383-.57q-1.3-.508-2.652-.907t-2.753-.681h0a31.963,31.963,0,0,0-3.211-.483q-1.63-.162-3.3-.162-1.362,0-2.7.109t-2.636.322q-.279.042-.555.092c-.184.033-.367.069-.551.108a32.764,32.764,0,0,0-11.449,4.653,32.94,32.94,0,0,0-13.494,17.714c-.021.062-.041.125-.06.188s-.038.125-.057.187c-.007.026-.015.052-.023.077l-.024.077a.421.421,0,0,1,.012.051l.008.051q1.27.6,2.513,1.246t2.451,1.35q2.808,1.631,5.431,3.524t5.042,4.032q.6.526,1.182,1.067t1.153,1.1q1.641,1.6,3.168,3.316t2.935,3.529q.46.6.905,1.2t.874,1.218l.309.442.309.449v0q1.5,2.218,2.822,4.563t2.449,4.8q1.167-2.547,2.548-4.971t2.955-4.712v0l.209-.3c.07-.1.14-.2.21-.3l.139-.2.138-.195c.147-.2.293-.405.441-.608s.3-.405.452-.6a65.274,65.274,0,0,1,22.11-18.735q.205-.108.412-.213l.415-.21.021-.011.02-.007c.235-.118.47-.235.705-.349s.471-.227.707-.338c0-.03.011-.061.017-.091S269.76,99.447,269.767,99.415Z"/>
    </clipPath>
    <clipPath id="e3ac85e2-917f-4928-b047-aec36cbf7808" transform="translate(-15.051 -14.392)">
      <path class="a0128067-ff31-4aa9-9d4b-f3a480684d8d" d="M263.5,60.153h0c-.012-.019-.022-.038-.033-.058s-.021-.04-.032-.058a43.31,43.31,0,0,0-18.688,16.5q1.4.282,2.753.681t2.652.907q.7.269,1.383.57t1.343.633q1.056.526,2.063,1.124t1.969,1.263q.229.158.454.318t.446.328c-.027-.163-.053-.324-.076-.485s-.044-.323-.062-.486q-.113-.885-.168-1.785t-.056-1.814q0-.683.032-1.361t.1-1.351q.048-.548.119-1.087t.164-1.072A28.534,28.534,0,0,1,263.5,60.157v0Z"/>
    </clipPath>
  </defs>
  <title>QFoxAppBarLogo3</title>
  <g id="a1bc4c44-6708-4c6a-8acd-10e9e028f700" data-name="g80">
    <g>
      <path class="ea985d0c-211c-4131-9ca5-ce55e854c0be" d="M270.743,88.626h0q0-2.81-.257-5.56t-.756-5.413q-.233-1.269-.523-2.515t-.628-2.474q-.592-2.132-1.338-4.2t-1.634-4.055q-.485-1.086-1.01-2.15t-1.094-2.1a28.524,28.524,0,0,0-5.638,12.758q-.094.532-.164,1.072t-.119,1.087q-.066.672-.1,1.351t-.032,1.361q0,.912.056,1.814t.168,1.785c.018.163.039.324.062.486s.049.322.076.485a32.965,32.965,0,0,1,10.018,12.066,32.368,32.368,0,0,1,1.936,4.992q.482-2.624.729-5.324T270.743,88.626Z" transform="translate(-15.051 -14.392)"/>
      <g class="a22e5de7-696a-48ce-89c1-2e94c250b456">
        <g id="a056bdfe-368e-4103-9506-b1ae126708db" data-name="g82">
          <path id="ae945717-25a4-47d4-a1c4-f917d075f27a" data-name="path94" class="fa918254-ac81-430e-af47-03c75f8a9748" d="M270.743,88.626q0-2.81-.257-5.56t-.756-5.413q-.233-1.269-.523-2.515t-.628-2.474q-.592-2.132-1.338-4.2t-1.634-4.055q-.485-1.086-1.01-2.15t-1.094-2.1a28.524,28.524,0,0,0-5.638,12.758q-.094.532-.164,1.072t-.119,1.087q-.066.672-.1,1.351t-.032,1.361q0,.912.056,1.814t.168,1.785c.018.163.039.324.062.486s.049.322.076.485a32.965,32.965,0,0,1,10.018,12.066,32.368,32.368,0,0,1,1.936,4.992q.482-2.624.729-5.324t.247-5.465" transform="translate(-15.051 -14.392)"/>
        </g>
      </g>
      <path class="a97a29e1-d7b9-4eb6-9d35-35ac538710d3" d="M270.743,88.626h0q0-2.81-.257-5.56t-.756-5.413q-.233-1.269-.523-2.515t-.628-2.474q-.592-2.132-1.338-4.2t-1.634-4.055q-.485-1.086-1.01-2.15t-1.094-2.1a28.524,28.524,0,0,0-5.638,12.758q-.094.532-.164,1.072t-.119,1.087q-.066.672-.1,1.351t-.032,1.361q0,.912.056,1.814t.168,1.785c.018.163.039.324.062.486s.049.322.076.485a32.965,32.965,0,0,1,10.018,12.066,32.368,32.368,0,0,1,1.936,4.992q.482-2.624.729-5.324T270.743,88.626Z" transform="translate(-15.051 -14.392)"/>
    </g>
  </g>
  <g id="bbc85aa7-37fc-4fe2-afe3-404bb94ae7fc" data-name="g112">
    <g>
      <path class="ea985d0c-211c-4131-9ca5-ce55e854c0be" d="M269.731,99.6h0c-.238.11-.473.224-.708.339s-.469.231-.7.347l-.022.009-.022.013-.413.209c-.138.07-.276.14-.414.213a65.277,65.277,0,0,0-22.11,18.734c-.151.2-.3.4-.45.6s-.3.405-.442.608l-.138.195-.138.2c-.071.1-.141.2-.211.3s-.138.2-.206.3v.005q-1.573,2.289-2.956,4.712t-2.551,4.972q-1.128-2.458-2.448-4.8t-2.821-4.562v-.006q-.155-.228-.308-.45t-.309-.442c-.287-.412-.579-.816-.875-1.217s-.6-.8-.9-1.2q-1.408-1.814-2.936-3.53t-3.167-3.319q-.572-.557-1.154-1.1t-1.183-1.068q-2.418-2.139-5.042-4.032t-5.431-3.52q-1.209-.7-2.451-1.351t-2.51-1.246q.231,1.254.514,2.487t.617,2.447a59.411,59.411,0,0,0,7.151,16.094q.918,1.437,1.911,2.816t2.065,2.7a.064.064,0,0,1,.013.017l.009.021q1.149,1.407,2.374,2.744t2.533,2.59q1.485,1.44,3.069,2.771t3.26,2.552q1.156.849,2.36,1.637t2.444,1.523q.783.462,1.583.9t1.614.857h.006q.819-.422,1.623-.863t1.6-.911q1.318-.775,2.595-1.622t2.506-1.754q1.6-1.18,3.115-2.466t2.944-2.668c.043-.038.085-.079.127-.121s.084-.085.128-.128q1.224-1.193,2.375-2.457t2.233-2.6a59.322,59.322,0,0,0,11.81-24.306c0-.014.007-.03.011-.047s.008-.034.011-.051c.022-.094.042-.189.061-.284s.039-.189.058-.284q.086-.377.162-.756C269.637,100.11,269.685,99.856,269.731,99.6Z" transform="translate(-15.051 -14.392)"/>
      <g class="fe081f2e-5c5d-4fa9-93c0-10e5e212faa9">
        <g id="bb03c348-3acd-43af-b4d6-da69c2e560fa" data-name="g114">
          <path id="ebb524be-1a09-4198-8b00-d0a9bfad04ba" data-name="path126" class="fa918254-ac81-430e-af47-03c75f8a9748" d="M269.731,99.6c-.238.11-.473.224-.708.339s-.469.231-.7.347l-.022.009-.022.013-.413.209c-.138.07-.276.14-.414.213a65.277,65.277,0,0,0-22.11,18.734c-.151.2-.3.4-.45.6s-.3.405-.442.608l-.138.195-.138.2c-.071.1-.141.2-.211.3s-.138.2-.206.3v.005q-1.573,2.289-2.956,4.712t-2.551,4.972q-1.128-2.458-2.448-4.8t-2.821-4.562v-.006q-.155-.228-.308-.45t-.309-.442c-.287-.412-.579-.816-.875-1.217s-.6-.8-.9-1.2q-1.408-1.814-2.936-3.53t-3.167-3.319q-.572-.557-1.154-1.1t-1.183-1.068q-2.418-2.139-5.042-4.032t-5.431-3.52q-1.209-.7-2.451-1.351t-2.51-1.246q.231,1.254.514,2.487t.617,2.447a59.411,59.411,0,0,0,7.151,16.094q.918,1.437,1.911,2.816t2.065,2.7a.064.064,0,0,1,.013.017l.009.021q1.149,1.407,2.374,2.744t2.533,2.59q1.485,1.44,3.069,2.771t3.26,2.552q1.156.849,2.36,1.637t2.444,1.523q.783.462,1.583.9t1.614.857h.006q.819-.422,1.623-.863t1.6-.911q1.318-.775,2.595-1.622t2.506-1.754q1.6-1.18,3.115-2.466t2.944-2.668c.043-.038.085-.079.127-.121s.084-.085.128-.128q1.224-1.193,2.375-2.457t2.233-2.6a59.322,59.322,0,0,0,11.81-24.306c0-.014.007-.03.011-.047s.008-.034.011-.051c.022-.094.042-.189.061-.284s.039-.189.058-.284q.086-.377.162-.756c.052-.253.1-.507.146-.763" transform="translate(-15.051 -14.392)"/>
        </g>
      </g>
      <path class="a97a29e1-d7b9-4eb6-9d35-35ac538710d3" d="M269.731,99.6h0c-.238.11-.473.224-.708.339s-.469.231-.7.347l-.022.009-.022.013-.413.209c-.138.07-.276.14-.414.213a65.277,65.277,0,0,0-22.11,18.734c-.151.2-.3.4-.45.6s-.3.405-.442.608l-.138.195-.138.2c-.071.1-.141.2-.211.3s-.138.2-.206.3v.005q-1.573,2.289-2.956,4.712t-2.551,4.972q-1.128-2.458-2.448-4.8t-2.821-4.562v-.006q-.155-.228-.308-.45t-.309-.442c-.287-.412-.579-.816-.875-1.217s-.6-.8-.9-1.2q-1.408-1.814-2.936-3.53t-3.167-3.319q-.572-.557-1.154-1.1t-1.183-1.068q-2.418-2.139-5.042-4.032t-5.431-3.52q-1.209-.7-2.451-1.351t-2.51-1.246q.231,1.254.514,2.487t.617,2.447a59.411,59.411,0,0,0,7.151,16.094q.918,1.437,1.911,2.816t2.065,2.7a.064.064,0,0,1,.013.017l.009.021q1.149,1.407,2.374,2.744t2.533,2.59q1.485,1.44,3.069,2.771t3.26,2.552q1.156.849,2.36,1.637t2.444,1.523q.783.462,1.583.9t1.614.857h.006q.819-.422,1.623-.863t1.6-.911q1.318-.775,2.595-1.622t2.506-1.754q1.6-1.18,3.115-2.466t2.944-2.668c.043-.038.085-.079.127-.121s.084-.085.128-.128q1.224-1.193,2.375-2.457t2.233-2.6a59.322,59.322,0,0,0,11.81-24.306c0-.014.007-.03.011-.047s.008-.034.011-.051c.022-.094.042-.189.061-.284s.039-.189.058-.284q.086-.377.162-.756C269.637,100.11,269.685,99.856,269.731,99.6Z" transform="translate(-15.051 -14.392)"/>
    </g>
  </g>
  <g id="ebd612dc-8490-4e55-add0-ac49d9c8d68e" data-name="g160">
    <g>
      <path class="ea985d0c-211c-4131-9ca5-ce55e854c0be" d="M218.12,76.078h0c0-.221,0-.441-.007-.661s-.012-.44-.021-.658q-.037-.825-.122-1.638t-.208-1.613a28.528,28.528,0,0,0-4.486-11.4c-.039-.021-.079-.04-.118-.059s-.08-.036-.119-.052q-.561,1.017-1.083,2.061t-1,2.109a58.994,58.994,0,0,0-4.9,18.034,60.571,60.571,0,0,0-.34,6.422q0,2.668.23,5.281t.676,5.155c.039-.028.078-.057.115-.087l.113-.089A32.875,32.875,0,0,1,217.14,83.541a28.41,28.41,0,0,0,.73-3.655A29,29,0,0,0,218.12,76.078Z" transform="translate(-15.051 -14.392)"/>
      <g class="aa16c940-e18d-4475-97d2-cd7a18aa527b">
        <g id="bc64ce94-b5af-4fa8-9107-553de730374d" data-name="g162">
          <path id="a0ebfc93-35f2-4f7f-817e-cd9801371920" data-name="path174" class="fa918254-ac81-430e-af47-03c75f8a9748" d="M218.12,76.078c0-.221,0-.441-.007-.661s-.012-.44-.021-.658q-.037-.825-.122-1.638t-.208-1.613a28.528,28.528,0,0,0-4.486-11.4c-.039-.021-.079-.04-.118-.059s-.08-.036-.119-.052q-.561,1.017-1.083,2.061t-1,2.109a58.994,58.994,0,0,0-4.9,18.034,60.571,60.571,0,0,0-.34,6.422q0,2.668.23,5.281t.676,5.155c.039-.028.078-.057.115-.087l.113-.089A32.875,32.875,0,0,1,217.14,83.541a28.41,28.41,0,0,0,.73-3.655,29,29,0,0,0,.25-3.808" transform="translate(-15.051 -14.392)"/>
        </g>
      </g>
      <path class="a97a29e1-d7b9-4eb6-9d35-35ac538710d3" d="M218.12,76.078h0c0-.221,0-.441-.007-.661s-.012-.44-.021-.658q-.037-.825-.122-1.638t-.208-1.613a28.528,28.528,0,0,0-4.486-11.4c-.039-.021-.079-.04-.118-.059s-.08-.036-.119-.052q-.561,1.017-1.083,2.061t-1,2.109a58.994,58.994,0,0,0-4.9,18.034,60.571,60.571,0,0,0-.34,6.422q0,2.668.23,5.281t.676,5.155c.039-.028.078-.057.115-.087l.113-.089A32.875,32.875,0,0,1,217.14,83.541a28.41,28.41,0,0,0,.73-3.655A29,29,0,0,0,218.12,76.078Z" transform="translate(-15.051 -14.392)"/>
    </g>
  </g>
  <g>
    <path class="f1845099-f686-480a-a3ce-b0767b6ba96f" d="M110.9,132.526l4.224,16.307A88.6,88.6,0,0,1,92.712,152c-8.095,0-14.2-1.407-19.944-2.7-9.384-2.23-17.6-4.224-35.429,1.524l-5.161-16.071a108.657,108.657,0,0,1,10.793-2.933c-16.658-10.559-27.92-31.205-27.92-54.9,0-34.608,23.932-62.528,53.377-62.528,29.563,0,53.5,27.92,53.5,62.528,0,26.278-13.961,48.8-33.67,57.954C94.119,135.459,101.042,135.108,110.9,132.526ZM68.428,119.974c19.122,0,34.607-19.943,34.607-43.054S87.55,33.749,68.428,33.749c-19.006,0-34.607,20.061-34.607,43.171S49.422,119.974,68.428,119.974Z" transform="translate(-15.051 -14.392)"/>
    <path class="f1845099-f686-480a-a3ce-b0767b6ba96f" d="M127.215,135.929V19.436h77.9a36.34,36.34,0,0,1,0,16.307h-58.3V66.832h42a34.936,34.936,0,0,1,0,16.892H147.158v52.205S136.717,137.689,127.215,135.929Z" transform="translate(-15.051 -14.392)"/>
    <path class="f1845099-f686-480a-a3ce-b0767b6ba96f" d="M355.173,135.929s-12.669,2.463-20.765,0l-14.194-22.055-14.195,22.055c-8.094,2.463-20.765,0-20.765,0L309.89,97.8h-.117L286.545,61.787c9.854-2.463,20.764,0,20.764,0l12.9,19.943,12.9-19.943s10.792-2.463,20.648,0L330.654,97.8h-.117Z" transform="translate(-15.051 -14.392)"/>
  </g>
  <g id="b2abb109-222a-4326-9b4a-de3b036de98d" data-name="g48">
    <g>
      <path class="f138e420-390d-4611-8b56-fa0c12c67fbf" d="M231.792,76.519h0c-.051-.086-.1-.171-.157-.255s-.107-.17-.163-.256v0a43.308,43.308,0,0,0-18.2-15.893,28.528,28.528,0,0,1,4.486,11.4q.125.8.208,1.613t.122,1.638c.009.218.016.438.021.658s.007.44.007.661a29,29,0,0,1-.25,3.808,28.41,28.41,0,0,1-.73,3.655,32.947,32.947,0,0,1,3.2-2.37,32.62,32.62,0,0,1,11.449-4.652Z" transform="translate(-15.051 -14.392)"/>
      <g class="e501929a-7de1-4d15-98e2-9433ef573208">
        <g id="b42bac96-88f0-4987-8cf4-c2d51c91e4da" data-name="g50">
          <path id="b9cdf442-d36b-48da-8713-f731dc7caa7d" data-name="path62" class="a0128067-ff31-4aa9-9d4b-f3a480684d8d" d="M231.792,76.519c-.051-.086-.1-.171-.157-.255s-.107-.17-.163-.256v0a43.308,43.308,0,0,0-18.2-15.893,28.528,28.528,0,0,1,4.486,11.4q.125.8.208,1.613t.122,1.638c.009.218.016.438.021.658s.007.44.007.661a29,29,0,0,1-.25,3.808,28.41,28.41,0,0,1-.73,3.655,32.947,32.947,0,0,1,3.2-2.37,32.62,32.62,0,0,1,11.449-4.652" transform="translate(-15.051 -14.392)"/>
        </g>
      </g>
      <path class="e38015c3-9db2-4d00-8969-3b358010f0e1" d="M231.792,76.519h0c-.051-.086-.1-.171-.157-.255s-.107-.17-.163-.256v0a43.308,43.308,0,0,0-18.2-15.893,28.528,28.528,0,0,1,4.486,11.4q.125.8.208,1.613t.122,1.638c.009.218.016.438.021.658s.007.44.007.661a29,29,0,0,1-.25,3.808,28.41,28.41,0,0,1-.73,3.655,32.947,32.947,0,0,1,3.2-2.37,32.62,32.62,0,0,1,11.449-4.652Z" transform="translate(-15.051 -14.392)"/>
    </g>
  </g>
  <g id="a9775c74-00d1-4b9e-bd4f-c29382006f7a" data-name="g96">
    <g>
      <path class="f138e420-390d-4611-8b56-fa0c12c67fbf" d="M269.767,99.415h0a32.368,32.368,0,0,0-1.936-4.992,33.024,33.024,0,0,0-10.018-12.066c-.148-.111-.3-.221-.446-.328s-.3-.213-.454-.318q-.963-.664-1.969-1.263t-2.063-1.124q-.662-.33-1.343-.633t-1.383-.57q-1.3-.508-2.652-.907t-2.753-.681h0a31.963,31.963,0,0,0-3.211-.483q-1.63-.162-3.3-.162-1.362,0-2.7.109t-2.636.322q-.279.042-.555.092c-.184.033-.367.069-.551.108a32.764,32.764,0,0,0-11.449,4.653,32.94,32.94,0,0,0-13.494,17.714c-.021.062-.041.125-.06.188s-.038.125-.057.187c-.007.026-.015.052-.023.077l-.024.077a.421.421,0,0,1,.012.051l.008.051q1.27.6,2.513,1.246t2.451,1.35q2.808,1.631,5.431,3.524t5.042,4.032q.6.526,1.182,1.067t1.153,1.1q1.641,1.6,3.168,3.316t2.935,3.529q.46.6.905,1.2t.874,1.218l.309.442.309.449v0q1.5,2.218,2.822,4.563t2.449,4.8q1.167-2.547,2.548-4.971t2.955-4.712v0l.209-.3c.07-.1.14-.2.21-.3l.139-.2.138-.195c.147-.2.293-.405.441-.608s.3-.405.452-.6a65.274,65.274,0,0,1,22.11-18.735q.205-.108.412-.213l.415-.21.021-.011.02-.007c.235-.118.47-.235.705-.349s.471-.227.707-.338c0-.03.011-.061.017-.091S269.76,99.447,269.767,99.415Z" transform="translate(-15.051 -14.392)"/>
      <g class="aa53e5b9-ca18-45d1-9d12-a43e593b3f55">
        <g id="f9da0fa1-28cc-4d2f-b705-c499c0fa3972" data-name="g98">
          <path id="abacc1bd-bc00-4565-bba6-1f822c6f1019" data-name="path110" class="a0128067-ff31-4aa9-9d4b-f3a480684d8d" d="M269.767,99.415a32.368,32.368,0,0,0-1.936-4.992,33.024,33.024,0,0,0-10.018-12.066c-.148-.111-.3-.221-.446-.328s-.3-.213-.454-.318q-.963-.664-1.969-1.263t-2.063-1.124q-.662-.33-1.343-.633t-1.383-.57q-1.3-.508-2.652-.907t-2.753-.681h0a31.963,31.963,0,0,0-3.211-.483q-1.63-.162-3.3-.162-1.362,0-2.7.109t-2.636.322q-.279.042-.555.092c-.184.033-.367.069-.551.108a32.764,32.764,0,0,0-11.449,4.653,32.94,32.94,0,0,0-13.494,17.714c-.021.062-.041.125-.06.188s-.038.125-.057.187c-.007.026-.015.052-.023.077l-.024.077a.421.421,0,0,1,.012.051l.008.051q1.27.6,2.513,1.246t2.451,1.35q2.808,1.631,5.431,3.524t5.042,4.032q.6.526,1.182,1.067t1.153,1.1q1.641,1.6,3.168,3.316t2.935,3.529q.46.6.905,1.2t.874,1.218l.309.442.309.449v0q1.5,2.218,2.822,4.563t2.449,4.8q1.167-2.547,2.548-4.971t2.955-4.712v0l.209-.3c.07-.1.14-.2.21-.3l.139-.2.138-.195c.147-.2.293-.405.441-.608s.3-.405.452-.6a65.274,65.274,0,0,1,22.11-18.735q.205-.108.412-.213l.415-.21.021-.011.02-.007c.235-.118.47-.235.705-.349s.471-.227.707-.338c0-.03.011-.061.017-.091s.013-.063.02-.095" transform="translate(-15.051 -14.392)"/>
        </g>
      </g>
      <path class="e38015c3-9db2-4d00-8969-3b358010f0e1" d="M269.767,99.415h0a32.368,32.368,0,0,0-1.936-4.992,33.024,33.024,0,0,0-10.018-12.066c-.148-.111-.3-.221-.446-.328s-.3-.213-.454-.318q-.963-.664-1.969-1.263t-2.063-1.124q-.662-.33-1.343-.633t-1.383-.57q-1.3-.508-2.652-.907t-2.753-.681h0a31.963,31.963,0,0,0-3.211-.483q-1.63-.162-3.3-.162-1.362,0-2.7.109t-2.636.322q-.279.042-.555.092c-.184.033-.367.069-.551.108a32.764,32.764,0,0,0-11.449,4.653,32.94,32.94,0,0,0-13.494,17.714c-.021.062-.041.125-.06.188s-.038.125-.057.187c-.007.026-.015.052-.023.077l-.024.077a.421.421,0,0,1,.012.051l.008.051q1.27.6,2.513,1.246t2.451,1.35q2.808,1.631,5.431,3.524t5.042,4.032q.6.526,1.182,1.067t1.153,1.1q1.641,1.6,3.168,3.316t2.935,3.529q.46.6.905,1.2t.874,1.218l.309.442.309.449v0q1.5,2.218,2.822,4.563t2.449,4.8q1.167-2.547,2.548-4.971t2.955-4.712v0l.209-.3c.07-.1.14-.2.21-.3l.139-.2.138-.195c.147-.2.293-.405.441-.608s.3-.405.452-.6a65.274,65.274,0,0,1,22.11-18.735q.205-.108.412-.213l.415-.21.021-.011.02-.007c.235-.118.47-.235.705-.349s.471-.227.707-.338c0-.03.011-.061.017-.091S269.76,99.447,269.767,99.415Z" transform="translate(-15.051 -14.392)"/>
    </g>
  </g>
  <g id="ba134d0f-195c-4992-ab06-d5c8a417d346" data-name="g32">
    <g>
      <path class="f138e420-390d-4611-8b56-fa0c12c67fbf" d="M263.5,60.153h0c-.012-.019-.022-.038-.033-.058s-.021-.04-.032-.058a43.31,43.31,0,0,0-18.688,16.5q1.4.282,2.753.681t2.652.907q.7.269,1.383.57t1.343.633q1.056.526,2.063,1.124t1.969,1.263q.229.158.454.318t.446.328c-.027-.163-.053-.324-.076-.485s-.044-.323-.062-.486q-.113-.885-.168-1.785t-.056-1.814q0-.683.032-1.361t.1-1.351q.048-.548.119-1.087t.164-1.072A28.534,28.534,0,0,1,263.5,60.157v0Z" transform="translate(-15.051 -14.392)"/>
      <g class="b87ac4c3-0ca8-4031-a8a9-72cd20c34f94">
        <g id="b5047f31-b177-4584-9ba8-5943a5e89751" data-name="g34">
          <path id="f46a097d-2716-4b9a-aeeb-4bba76e51813" data-name="path46" class="a0128067-ff31-4aa9-9d4b-f3a480684d8d" d="M263.5,60.153c-.012-.019-.022-.038-.033-.058s-.021-.04-.032-.058a43.31,43.31,0,0,0-18.688,16.5q1.4.282,2.753.681t2.652.907q.7.269,1.383.57t1.343.633q1.056.526,2.063,1.124t1.969,1.263q.229.158.454.318t.446.328c-.027-.163-.053-.324-.076-.485s-.044-.323-.062-.486q-.113-.885-.168-1.785t-.056-1.814q0-.683.032-1.361t.1-1.351q.048-.548.119-1.087t.164-1.072A28.534,28.534,0,0,1,263.5,60.157v0" transform="translate(-15.051 -14.392)"/>
        </g>
      </g>
      <path class="e38015c3-9db2-4d00-8969-3b358010f0e1" d="M263.5,60.153h0c-.012-.019-.022-.038-.033-.058s-.021-.04-.032-.058a43.31,43.31,0,0,0-18.688,16.5q1.4.282,2.753.681t2.652.907q.7.269,1.383.57t1.343.633q1.056.526,2.063,1.124t1.969,1.263q.229.158.454.318t.446.328c-.027-.163-.053-.324-.076-.485s-.044-.323-.062-.486q-.113-.885-.168-1.785t-.056-1.814q0-.683.032-1.361t.1-1.351q.048-.548.119-1.087t.164-1.072A28.534,28.534,0,0,1,263.5,60.157v0Z" transform="translate(-15.051 -14.392)"/>
    </g>
  </g>
</svg>
