<svg xmlns="http://www.w3.org/2000/svg" xmlns:xlink="http://www.w3.org/1999/xlink" viewBox="0 0 403 403">
  <defs>
    <style>
      .cls-1 {
        fill: #6a49b7;
      }

      .cls-2 {
        fill: url(#linear-gradient);
      }

      .cls-3 {
        fill: url(#linear-gradient-2);
      }

      .cls-4 {
        fill: url(#linear-gradient-3);
      }

      .cls-5 {
        fill: url(#linear-gradient-4);
      }

      .cls-6 {
        fill: url(#linear-gradient-5);
      }

      .cls-7 {
        fill: url(#linear-gradient-6);
      }

      .cls-8 {
        fill: url(#linear-gradient-7);
      }

      .cls-9 {
        fill: url(#linear-gradient-8);
      }

      .cls-10 {
        fill: url(#linear-gradient-9);
      }

      .cls-11 {
        fill: url(#linear-gradient-10);
      }

      .cls-12 {
        fill: url(#linear-gradient-11);
      }
    </style>
    <linearGradient id="linear-gradient" x1="255.13" y1="236.54" x2="255.13" y2="170.31" gradientUnits="userSpaceOnUse">
      <stop offset="0" stop-color="#fff"/>
      <stop offset="0.26" stop-color="#fbede1"/>
      <stop offset="0.52" stop-color="#f8e0cc"/>
      <stop offset="0.77" stop-color="#f7d9be"/>
      <stop offset="1" stop-color="#f6d6ba"/>
    </linearGradient>
    <linearGradient id="linear-gradient-2" x1="144.32" y1="346.17" x2="320.85" y2="346.17" gradientUnits="userSpaceOnUse">
      <stop offset="0" stop-color="#ff5722"/>
      <stop offset="0.34" stop-color="#ff8640"/>
      <stop offset="0.79" stop-color="#ffbd62"/>
      <stop offset="1" stop-color="#ffd270"/>
    </linearGradient>
    <linearGradient id="linear-gradient-3" x1="180.47" y1="308.26" x2="335.59" y2="308.26" gradientUnits="userSpaceOnUse">
      <stop offset="0" stop-color="#e64a19"/>
      <stop offset="0.3" stop-color="#e64c1b"/>
      <stop offset="0.46" stop-color="#e85420"/>
      <stop offset="0.6" stop-color="#ea6229"/>
      <stop offset="0.71" stop-color="#ee7635"/>
      <stop offset="0.82" stop-color="#f38f45"/>
      <stop offset="0.91" stop-color="#f8ae59"/>
      <stop offset="1" stop-color="#ffd270"/>
    </linearGradient>
    <linearGradient id="linear-gradient-4" x1="281.68" y1="262.24" x2="321.63" y2="262.24" xlink:href="#linear-gradient-3"/>
    <linearGradient id="linear-gradient-5" x1="220.53" y1="278.21" x2="277.48" y2="278.21" gradientUnits="userSpaceOnUse">
      <stop offset="0" stop-color="#ff5722"/>
      <stop offset="0.14" stop-color="#ff6028"/>
      <stop offset="0.38" stop-color="#ff7837"/>
      <stop offset="0.68" stop-color="#ff9f50"/>
      <stop offset="1" stop-color="#ffd270"/>
    </linearGradient>
    <linearGradient id="linear-gradient-6" x1="255.96" y1="302.81" x2="255.96" y2="218.41" xlink:href="#linear-gradient"/>
    <linearGradient id="linear-gradient-7" x1="255.17" y1="215.88" x2="255.17" y2="127.39" gradientUnits="userSpaceOnUse">
      <stop offset="0" stop-color="#ff5722"/>
      <stop offset="0.23" stop-color="#ff5a24"/>
      <stop offset="0.41" stop-color="#ff642a"/>
      <stop offset="0.57" stop-color="#ff7434"/>
      <stop offset="0.71" stop-color="#ff8a43"/>
      <stop offset="0.85" stop-color="#ffa855"/>
      <stop offset="0.98" stop-color="#ffcb6c"/>
      <stop offset="1" stop-color="#ffd270"/>
    </linearGradient>
    <linearGradient id="linear-gradient-8" x1="209.49" y1="156.45" x2="209.49" y2="101.97" gradientUnits="userSpaceOnUse">
      <stop offset="0" stop-color="#f6d6ba"/>
      <stop offset="0.23" stop-color="#f7d9be"/>
      <stop offset="0.48" stop-color="#f8e0cc"/>
      <stop offset="0.74" stop-color="#fbede1"/>
      <stop offset="1" stop-color="#fff"/>
    </linearGradient>
    <linearGradient id="linear-gradient-9" x1="217.85" y1="118.1" x2="240.16" y2="118.1" gradientUnits="userSpaceOnUse">
      <stop offset="0" stop-color="#ffd270"/>
      <stop offset="0.06" stop-color="#f9bd64"/>
      <stop offset="0.19" stop-color="#ee9a50"/>
      <stop offset="0.32" stop-color="#e57c40"/>
      <stop offset="0.46" stop-color="#df6633"/>
      <stop offset="0.61" stop-color="#da562a"/>
      <stop offset="0.77" stop-color="#d74c25"/>
      <stop offset="1" stop-color="#d64923"/>
    </linearGradient>
    <linearGradient id="linear-gradient-10" x1="300.04" y1="156.46" x2="300.04" y2="102.24" xlink:href="#linear-gradient-8"/>
    <linearGradient id="linear-gradient-11" x1="270.29" y1="117.56" x2="292.32" y2="117.56" gradientUnits="userSpaceOnUse">
      <stop offset="0" stop-color="#d64923"/>
      <stop offset="0.23" stop-color="#d74c25"/>
      <stop offset="0.39" stop-color="#da562a"/>
      <stop offset="0.54" stop-color="#df6633"/>
      <stop offset="0.68" stop-color="#e57c40"/>
      <stop offset="0.81" stop-color="#ee9a50"/>
      <stop offset="0.94" stop-color="#f9bd64"/>
      <stop offset="1" stop-color="#ffd270"/>
    </linearGradient>
  </defs>
  <title>QFoxLogoWithBg</title>
  <g id="Objects">
    <circle class="cls-1" cx="201.5" cy="201.5" r="201.5"/>
    <g>
      <path class="cls-2" d="M306.49,170.48a100.91,100.91,0,0,1-19.78,40.18,96.89,96.89,0,0,1-7.81,8.57l-.07.07c-.1.1-.2.2-.37.35a100.39,100.39,0,0,1-18.93,14.44c-1.37.81-2.8,1.61-4.38,2.45-1.51-.8-3-1.61-4.35-2.43-2.83-1.66-5.57-3.47-8.16-5.36a99.91,99.91,0,0,1-10.73-9c-.73-.69-1.44-1.41-2.15-2.13l-.46-.48c-.55-.57-1.1-1.14-1.64-1.73l-.75-.84-1.29-1.45c-.29-.33-.57-.68-.85-1s-.75-.87-1.11-1.31h0l-.11-.15A100.87,100.87,0,0,1,204.69,174c-.33-1.19-.65-2.41-.93-3.65l.05,0q2.06,1.09,4.07,2.25a110.91,110.91,0,0,1,17.8,12.85c1.32,1.16,2.66,2.4,3.95,3.67A111.59,111.59,0,0,1,240,200.73c1.15,1.5,2.14,2.83,3,4.1l.18.25c.26.39.53.76.79,1.16l.06.08,0,0q1.28,1.91,2.48,3.84,2.4,3.88,4.49,8,1,2,2,4.11a3.29,3.29,0,0,0,.37.57,2.4,2.4,0,0,0,1.79.8,2.36,2.36,0,0,0,2.14-1.38,111.18,111.18,0,0,1,9.35-16.44l.07-.12.18-.24.45-.66.71-1c.42-.57.84-1.15,1.29-1.74.62-.83,1.25-1.64,1.9-2.44.19-.26.4-.5.61-.76.44-.55.89-1.09,1.34-1.63.25-.3.51-.6.77-.89.41-.48.83-1,1.26-1.45.27-.31.55-.6.82-.9.42-.47.84-.93,1.27-1.38s.6-.62.89-.92.84-.88,1.26-1.3l.95-.93,1.26-1.23,1-.92,1.27-1.17,1-.91,1.29-1.13,1.07-.88c.45-.37.87-.73,1.32-1.09s.74-.58,1.12-.87.87-.69,1.31-1l1.16-.85c.44-.33.88-.66,1.33-1l1.18-.82,1.35-.94,1.23-.8,1.35-.89,1.25-.77,1.37-.84c.43-.25.86-.49,1.29-.75l1.39-.79,1.31-.71Z" transform="translate(-53.88 -51.88)"/>
      <path class="cls-3" d="M320.85,348.3c-1.17,1.85-2.41,3.66-3.7,5.43A96,96,0,0,1,281,383.67,95.62,95.62,0,0,1,184.26,375a95.8,95.8,0,0,1-19.76-19,94.7,94.7,0,0,1-20.18-56.63,105.77,105.77,0,0,0,27.06,21c.33.49.67,1,1,1.45s.74,1.09,1.13,1.61.81,1.11,1.23,1.66.77,1,1.17,1.55l1.3,1.61c.4.5.8,1,1.21,1.49s.91,1,1.36,1.57.84,1,1.26,1.43,1,1,1.43,1.53l1.29,1.37c.49.5,1,1,1.49,1.46s.88.89,1.34,1.33l1.54,1.4c.46.43.91.85,1.38,1.27s1.07.91,1.61,1.36l1.41,1.2c.56.44,1.11.88,1.68,1.31s.95.77,1.44,1.14,1.16.85,1.74,1.26,1,.72,1.46,1.06,1.21.82,1.81,1.23,1,.66,1.48,1,1.27.78,1.89,1.17,1,.63,1.5.93c.65.38,1.32.74,2,1.12.5.29,1,.57,1.48.84.71.39,1.44.75,2.16,1.12.46.23.92.49,1.39.72.82.41,1.66.79,2.49,1.18l1.13.53c1.22.55,2.46,1.08,3.71,1.59l.1,0a3.82,3.82,0,0,0,.36.13c1.2.48,2.42.94,3.65,1.38,1.64.59,3.3,1.13,5,1.64s3.31,1,5,1.37l.28.08.37.08q4.08,1,8.2,1.66c1.26.21,2.53.38,3.8.54l1.1.12c.95.11,1.91.21,2.86.28l1.11.1c1.2.09,2.41.17,3.62.21l.24,0c1.26.05,2.53.07,3.81.08h.43l.78,0,2.85-.06,1.2,0c1.3-.06,2.61-.14,3.92-.25a105.81,105.81,0,0,0,40.84-11.89c1-.51,1.91-1,2.86-1.58l1-.56,1.86-1.1c.37-.23.73-.47,1.1-.69.57-.35,1.12-.7,1.68-1.07l1.12-.76,1.6-1.07Z" transform="translate(-53.88 -51.88)"/>
      <path class="cls-4" d="M335.59,297.28a97.11,97.11,0,0,1-1.11,14.57,94.8,94.8,0,0,1-7.86,25.91l-1,.85c-.38.31-.74.64-1.12.95l-1.2,1c-.38.3-.75.61-1.14.9s-.82.63-1.23.95l-1.16.87c-.42.31-.85.6-1.28.91s-.77.55-1.15.81-.9.61-1.34.91l-1.15.76-1.44.91-1.09.68-1.62,1-1,.55c-.87.5-1.75,1-2.62,1.44a101.62,101.62,0,0,1-39,11.37,101.86,101.86,0,0,1-24.58-.95q-2.76-.44-5.5-1c-2.73-.59-5.44-1.3-8.11-2.12s-5.31-1.75-7.9-2.79l-.15-.06-.1,0-.2-.08c-1.11-.45-2.21-.93-3.3-1.41l-1.05-.48L215,352.53l-1.19-.6c-.68-.34-1.35-.69-2-1l-1.21-.66c-.67-.37-1.33-.75-2-1.13-.37-.21-.75-.43-1.12-.66-.74-.44-1.47-.9-2.19-1.36-.28-.17-.56-.34-.83-.52-1-.64-2-1.29-2.94-2-.2-.13-.39-.28-.58-.42-.77-.55-1.54-1.1-2.29-1.67l-1-.76-1.83-1.43-1-.87L193.1,338l-1-.89c-.57-.52-1.14-1-1.71-1.58l-.9-.84c-.69-.67-1.38-1.34-2.05-2l-.47-.48c-.83-.85-1.64-1.71-2.43-2.59l-.65-.73c-.58-.64-1.15-1.3-1.7-2-.28-.32-.55-.65-.83-1s-.57-.73-.87-1.08a106.54,106.54,0,0,0,68.66,5c.87-.22,1.74-.46,2.55-.7,1.42-.4,2.85-.85,4.35-1.36s2.91-1,4.33-1.57c.52-.18,1-.38,1.51-.58,1.2-.48,2.4-1,3.58-1.52s2.37-1.09,3.55-1.66l.17-.09c2.24-1.1,4.43-2.29,6.58-3.55a.62.62,0,0,0,.16-.1h0c1.06-.62,2.12-1.26,3.17-1.93a112.72,112.72,0,0,0,9.23-6.58c1.17-.93,2.32-1.9,3.45-2.88.38-.33.74-.67,1.12-1,.75-.66,1.48-1.32,2.2-2,.44-.42.86-.84,1.29-1.27.64-.61,1.28-1.24,1.89-1.88.46-.45.89-.93,1.33-1.4s1.16-1.23,1.72-1.86l1.31-1.51c.54-.62,1.07-1.24,1.59-1.87s.86-1.06,1.28-1.6L307,291c.41-.55.83-1.11,1.23-1.68s.92-1.27,1.37-1.92.79-1.16,1.17-1.74.86-1.31,1.28-2,.75-1.19,1.11-1.79.79-1.34,1.18-2,.7-1.22,1-1.85.73-1.37,1.09-2.05.66-1.25,1-1.88.67-1.41,1-2.12.6-1.26.88-1.9.64-1.48.95-2.23.53-1.24.77-1.86c.34-.86.65-1.73,1-2.59.19-.53.4-1.05.58-1.58.48-1.37.93-2.75,1.35-4.15.17-.55.31-1.11.46-1.66.23-.8.47-1.59.68-2.4A95.63,95.63,0,0,1,335.59,297.28Z" transform="translate(-53.88 -51.88)"/>
      <path class="cls-5" d="M321.63,247.51s0,.05,0,.08h0a99.8,99.8,0,0,1-5.06,16.88,102.18,102.18,0,0,1-31.18,42c-1.11.88-2.23,1.73-3.37,2.55l-.32.24c.38-.77.76-1.53,1.13-2.3l0,0h0c1.22-2.54,2.32-5.13,3.31-7.73s1.88-5.28,2.64-7.95a99.43,99.43,0,0,0,3.5-19.2c.15-1.87.25-3.75.31-5.64,0-.95,0-1.89,0-2.84a100.4,100.4,0,0,0-1-14.27,99.2,99.2,0,0,0-4.67-19.14c-.26-.74-.53-1.47-.8-2.21l-.25-.63c-.21-.52-.41-1.05-.61-1.58-.14-.31-.27-.63-.4-.94s-.35-.84-.53-1.25-.24-.53-.35-.8c-.2-.44-.4-.89-.59-1.34l.35-.39c.78-.78,1.54-1.58,2.3-2.4.09-.11.19-.2.28-.31.84-.91,1.67-1.86,2.48-2.81.08-.11.18-.2.26-.3,2.83,1.7,5.61,3.57,8.3,5.57a96.14,96.14,0,0,1,20,20.34C318.89,243.21,320.31,245.35,321.63,247.51Z" transform="translate(-53.88 -51.88)"/>
      <path class="cls-6" d="M277.48,307.09c0,.07-.06.14-.1.2-.6,1.17-1.22,2.33-1.86,3.47l-.46.78c-.57,1-1.16,2-1.76,2.93l-.27.43c-.52.31-1,.59-1.57.89l-1.4.78c-.64.34-1.29.66-1.93,1l-1.35.69c-.72.35-1.45.68-2.17,1l-1.17.54c-1.11.5-2.24,1-3.38,1.43-.43.18-.88.35-1.36.53-.86.33-1.71.65-2.55,1l-.3.11q-1.2-1.12-2.46-2.4c-1-1-2.08-2.12-3.19-3.34a113,113,0,0,1-29.32-67.36c-.23-2.94-.35-5.94-.35-8.88,0-2.43.07-4.86.22-7.27,0,.11.05.23.07.33.11.62.24,1.25.36,1.88.07.31.12.62.19.94.19.94.4,1.87.61,2.82.8,3.31,1.78,6.65,2.93,9.94a101.74,101.74,0,0,0,4.16,10q1.56,3.24,3.35,6.38a99.9,99.9,0,0,0,5.89,9.08c1.73,2.41,3.58,4.72,5.45,6.86A100.83,100.83,0,0,0,260.7,297.3c1.72,1.24,3.52,2.45,5.33,3.6,1,.63,2,1.24,3.07,1.85l1,.56c.71.41,1.42.81,2.15,1.19l1.2.63c.68.35,1.37.69,2.06,1l1.24.59Z" transform="translate(-53.88 -51.88)"/>
      <path class="cls-7" d="M287.9,263.58c0,.88,0,1.76,0,2.64l0,.87c0,.58,0,1.17-.07,1.75,0,.35-.05.69-.08,1,0,.53-.05,1.05-.1,1.57s-.07.75-.1,1.12-.09,1-.14,1.48-.09.76-.14,1.15-.11,1-.18,1.43-.11.78-.17,1.17-.14.93-.21,1.4-.14.78-.2,1.18-.16.91-.25,1.37-.16.78-.23,1.18-.19.91-.3,1.35-.17.78-.26,1.18-.21.9-.32,1.34-.2.79-.31,1.17-.23.89-.35,1.34-.22.77-.33,1.16-.27.89-.4,1.32-.24.77-.37,1.16-.28.87-.43,1.32l-.39,1.14c-.16.43-.31.87-.47,1.3s-.29.76-.43,1.13-.34.87-.52,1.31-.29.75-.44,1.11-.38.87-.56,1.31l-.48,1.09a1.07,1.07,0,0,1-.07.15c-.24-.11-.5-.21-.73-.33l-1.19-.56c-.66-.32-1.32-.66-2-1l-1.13-.59c-.7-.37-1.39-.76-2.08-1.14l-.95-.53c-1-.58-2-1.16-2.92-1.77-1.73-1.09-3.44-2.24-5.09-3.43l-2.2-1.64a95.74,95.74,0,0,1-8.3-7.16c-2-1.9-3.86-3.9-5.65-6s-3.52-4.24-5.19-6.53a95.09,95.09,0,0,1-12.76-24.26,98,98,0,0,1-2.79-9.47,94.8,94.8,0,0,1-1.8-9.87c-.06-.39-.1-.79-.15-1.18-.15-1.34-.27-2.68-.36-4,0-.28-.05-.55-.07-.82-.08-1.31-.14-2.61-.17-3.91a1.85,1.85,0,0,1,0-.23l.07.06c.5.55,1,1.08,1.53,1.62l.71.76c.76.77,1.53,1.54,2.3,2.27s1.76,1.68,2.67,2.5a104.4,104.4,0,0,0,8.57,6.95c.67.49,1.36,1,2,1.46,2.08,1.45,4.26,2.84,6.47,4.15.89.53,1.83,1.06,2.77,1.58s1.92,1,2.9,1.54a2.46,2.46,0,0,0,1.09.26,2.43,2.43,0,0,0,1.09-.26c2.08-1.08,3.95-2.11,5.69-3.15a100,100,0,0,0,9.07-6c.86-.64,1.71-1.29,2.56-2l.79-.64c.58-.46,1.17-.94,1.74-1.42l.87-.74q.84-.71,1.65-1.44l.8-.72c.12-.12.25-.22.38-.33a1.89,1.89,0,0,0,.09.21c.43,1,.83,2,1.23,2.94l.23.6c.4,1,.79,2.05,1.15,3.08A95.11,95.11,0,0,1,286.94,250,98.64,98.64,0,0,1,287.9,263.58Z" transform="translate(-53.88 -51.88)"/>
      <path class="cls-8" d="M307.1,164.87l-.74.36-.12.06-1.47.75a116.22,116.22,0,0,0-39.15,33.17c-.47.61-.91,1.22-1.35,1.84l-.73,1-.5.7-.24.35a1.19,1.19,0,0,0-.09.15c-1.39,2-2.71,4.1-4,6.19s-2.45,4.25-3.55,6.43a119.12,119.12,0,0,0-7.12-12,.91.91,0,0,0-.08-.13c-.3-.44-.61-.89-.92-1.32l-.17-.25c-.69-1-1.44-2-2.28-3.14l-.87-1.15c-1.66-2.14-3.41-4.24-5.22-6.26s-3.67-4-5.59-5.86c-.68-.67-1.37-1.32-2.07-2s-1.38-1.27-2.07-1.87a112.4,112.4,0,0,0-8.94-7.15,114.69,114.69,0,0,0-9.62-6.25c-1-.58-2.05-1.16-3.1-1.72l-.67-.37c-1-.53-2.05-1.06-3.08-1.56a.71.71,0,0,0-.15-.08c.07-.18.12-.35.18-.52s.19-.56.29-.83.24-.65.37-1,.21-.56.32-.83.27-.64.4-1,.24-.55.35-.82.28-.62.43-.93.25-.55.38-.81l.46-.91c.14-.26.28-.53.41-.8s.32-.59.49-.88.29-.53.45-.79l.51-.85c.16-.27.31-.53.48-.79s.35-.55.53-.83l.51-.77c.18-.28.37-.54.55-.8l.54-.77.59-.77.57-.75c.2-.26.41-.51.62-.77s.39-.48.58-.72l.66-.74c.19-.24.4-.47.61-.7l.68-.74c.22-.22.42-.45.63-.67l.75-.74c.21-.2.41-.41.61-.62l.86-.79c.19-.17.37-.35.56-.51.47-.43,1-.86,1.46-1.27h0a54.93,54.93,0,0,1,11.13-7.21c.64-.32,1.28-.61,1.91-.89a54.43,54.43,0,0,1,11.37-3.58c.58-.12,1.17-.23,1.75-.31h.05a55.23,55.23,0,0,1,19.71.35H266c.42.08.84.19,1.27.28l1,.24c.44.1.88.23,1.32.36l.94.24c.47.14.94.3,1.41.45l.82.26c.73.25,1.47.53,2.2.81,1.5.58,3,1.25,4.51,2a55.53,55.53,0,0,1,6.73,4c.5.35,1,.7,1.48,1.07a54.57,54.57,0,0,1,9.52,9q1.41,1.69,2.68,3.49c.4.57.8,1.16,1.19,1.75.12.2.24.41.38.62.24.39.49.78.73,1.19.14.23.29.49.43.74s.41.72.61,1.09l.42.79c.19.37.38.73.55,1.1s.27.54.4.81l.51,1.11.36.83c.16.38.31.76.47,1.13s.22.55.32.82.3.81.44,1.2.19.53.27.8C307,164.7,307.07,164.79,307.1,164.87Z" transform="translate(-53.88 -51.88)"/>
      <path class="cls-9" d="M217.89,125.36c0,1,0,2-.09,3,0,.34-.07.68-.1,1,0,.67-.11,1.34-.19,2-.06.41-.13.8-.19,1.2-.09.6-.18,1.2-.3,1.8-.07.4-.18.82-.27,1.23s-.2.91-.31,1.36c-.11.08-.19.18-.29.25-.58.51-1.16,1-1.72,1.56l-.39.36c-.65.63-1.3,1.27-1.93,1.94-.14.15-.28.31-.43.46-.52.56-1,1.12-1.52,1.69l-.4.45c-.59.7-1.16,1.41-1.72,2.13l-.3.39c-.47.64-.94,1.28-1.39,1.92l-.34.48c-.52.77-1,1.55-1.51,2.34-.05.07-.1.16-.14.23-.45.73-.87,1.47-1.29,2.22l-.26.49c-.46.83-.89,1.67-1.3,2.53q-.42-4.65-.42-9.32A100,100,0,0,1,210,105.66c.55-1.24,1.14-2.47,1.75-3.69.17.3.34.59.5.9s.26.46.37.69c.32.61.64,1.23.93,1.87,0,.07.07.16.11.23.32.72.63,1.44.92,2.17l.24.65q.3.78.57,1.56c.09.26.18.53.26.81.16.48.31,1,.45,1.46.07.29.16.56.23.84.14.52.26,1,.38,1.57l.17.74c.16.77.31,1.55.44,2.33a51.89,51.89,0,0,1,.55,5.38C217.88,123.89,217.89,124.62,217.89,125.36Z" transform="translate(-53.88 -51.88)"/>
      <path class="cls-10" d="M240.16,124.57l-.12,0c-.84.22-1.66.46-2.47.71l-.57.17c-.74.25-1.5.5-2.25.78l-.26.09c-.81.3-1.61.62-2.41,1l-.56.25c-.8.35-1.6.71-2.39,1.09-1,.49-2,1-2.93,1.55a3.39,3.39,0,0,0-.38.2c-.92.52-1.82,1.07-2.7,1.64l-.48.31-.53.34,0-.23c.05-.34.09-.68.13-1s.05-.49.08-.73.07-.73.1-1.1l.05-.68c0-.4,0-.8.07-1.21l0-.58c0-.59,0-1.19,0-1.78,0-.8,0-1.6-.05-2.4a54.06,54.06,0,0,0-.61-5.91c-.13-.83-.29-1.65-.46-2.47,0-.19-.07-.37-.11-.56-.18-.79-.37-1.58-.59-2.37,0-.12-.06-.24-.1-.37-.2-.71-.42-1.41-.64-2.11l-.15-.46c-.25-.77-.53-1.53-.83-2.28a4.78,4.78,0,0,0-.19-.48c-.28-.69-.57-1.39-.87-2.07-.05-.09-.09-.18-.13-.27s0-.06,0-.1A72.68,72.68,0,0,1,240.16,124.57Z" transform="translate(-53.88 -51.88)"/>
      <path class="cls-11" d="M309.21,147.13q0,4.68-.42,9.33l-.06-.12c-.2-.42-.42-.85-.63-1.26s-.3-.61-.46-.91-.5-.88-.74-1.31c-.15-.27-.3-.55-.45-.81-.29-.49-.59-1-.88-1.42l-.41-.67c-.44-.68-.9-1.36-1.37-2s-.91-1.26-1.38-1.87l-.51-.65c-.3-.39-.61-.79-.93-1.18l-.63-.72c-.29-.34-.58-.69-.88-1l-.7-.75c-.3-.31-.59-.63-.88-.95s-.5-.5-.76-.74-.58-.6-.89-.88-.53-.49-.79-.74l-.92-.83c-.26-.24-.54-.47-.82-.71s-.62-.54-.94-.8-.57-.44-.84-.67l-.58-.45c0-.23-.08-.45-.1-.68a48.66,48.66,0,0,1-.37-6,43.84,43.84,0,0,1,.22-4.49c.11-1.24.27-2.43.47-3.56.15-.89.33-1.77.54-2.65.06-.29.14-.57.21-.86.15-.59.31-1.18.48-1.76q.13-.5.3-1c.17-.54.35-1.07.54-1.6.12-.33.23-.66.36-1,.2-.54.43-1.08.66-1.63.12-.29.24-.59.37-.88.31-.67.63-1.34,1-2l.21-.42c.4-.79.85-1.57,1.3-2.35l.42-.68c.26-.4.51-.81.78-1.21.63,1.27,1.24,2.55,1.8,3.84a99.33,99.33,0,0,1,5.05,14c.78,2.87,1.44,5.72,1.95,8.46A101.54,101.54,0,0,1,309.21,147.13Z" transform="translate(-53.88 -51.88)"/>
      <path class="cls-12" d="M292.32,103.69l-.21.43c-.11.2-.2.4-.31.59-.38.75-.75,1.52-1.09,2.29,0,.11-.11.22-.15.32-.38.86-.73,1.73-1.06,2.61l-.23.63c-.3.84-.59,1.68-.85,2.53a1.06,1.06,0,0,0-.06.19c-.27.9-.51,1.81-.73,2.73-.06.21-.11.44-.16.66-.21.92-.41,1.85-.57,2.78-.22,1.26-.4,2.59-.52,3.93-.15,1.6-.24,3.26-.24,4.94,0,1,0,2.09.1,3.12l-.37-.22-1.45-.85-.67-.37c-.69-.39-1.4-.77-2.11-1.12-1.64-.82-3.3-1.56-4.93-2.18-.94-.37-1.9-.7-2.86-1q-.44-.15-.87-.27c-.71-.23-1.43-.44-2.15-.64-.18,0-.36-.11-.54-.16A72.32,72.32,0,0,1,292.32,103.69Z" transform="translate(-53.88 -51.88)"/>
    </g>
  </g>
</svg>
