<svg id="visual" viewBox="0 0 1920 1080" width="1920" height="1080" xmlns="http://www.w3.org/2000/svg" xmlns:xlink="http://www.w3.org/1999/xlink" version="1.1"><path d="M0 290L35.5 291.7C71 293.3 142 296.7 213.2 272.8C284.3 249 355.7 198 426.8 182.5C498 167 569 187 640 219.7C711 252.3 782 297.7 853.2 310.7C924.3 323.7 995.7 304.3 1066.8 280.3C1138 256.3 1209 227.7 1280 237.5C1351 247.3 1422 295.7 1493.2 282.5C1564.3 269.3 1635.7 194.7 1706.8 163.3C1778 132 1849 144 1884.5 150L1920 156L1920 0L1884.5 0C1849 0 1778 0 1706.8 0C1635.7 0 1564.3 0 1493.2 0C1422 0 1351 0 1280 0C1209 0 1138 0 1066.8 0C995.7 0 924.3 0 853.2 0C782 0 711 0 640 0C569 0 498 0 426.8 0C355.7 0 284.3 0 213.2 0C142 0 71 0 35.5 0L0 0Z" fill="#6A49B7" stroke-linecap="round" stroke-linejoin="miter"></path></svg>